<?xml version="1.0" encoding="UTF-8" standalone="no"?>
<!-- Created with Inkscape (http://www.inkscape.org/) -->

<svg
   xmlns:dc="http://purl.org/dc/elements/1.1/"
   xmlns:cc="http://creativecommons.org/ns#"
   xmlns:rdf="http://www.w3.org/1999/02/22-rdf-syntax-ns#"
   xmlns:svg="http://www.w3.org/2000/svg"
   xmlns="http://www.w3.org/2000/svg"
   xmlns:sodipodi="http://sodipodi.sourceforge.net/DTD/sodipodi-0.dtd"
   xmlns:inkscape="http://www.inkscape.org/namespaces/inkscape"
   version="1.1"
   id="svg2"
   xml:space="preserve"
   width="8755.5596"
   height="7233.3066"
   viewBox="0 0 8755.5596 7233.3066"
   sodipodi:docname="logo_black_white-border.svg"
   inkscape:version="0.92.3 (2405546, 2018-03-11)"><metadata
     id="metadata8"><rdf:RDF><cc:Work
         rdf:about=""><dc:format>image/svg+xml</dc:format><dc:type
           rdf:resource="http://purl.org/dc/dcmitype/StillImage" /><dc:title></dc:title></cc:Work></rdf:RDF></metadata><defs
     id="defs6"><clipPath
       clipPathUnits="userSpaceOnUse"
       id="clipPath18"><path
         d="M 1.636,1.346 H 6566.665 V 5423.507 H 1.636 Z"
         id="path16"
         inkscape:connector-curvature="0" /></clipPath><clipPath
       clipPathUnits="userSpaceOnUse"
       id="clipPath34"><path
         d="M 1.637,1.347 H 6566.666 V 5423.508 H 1.637 Z"
         id="path32"
         inkscape:connector-curvature="0" /></clipPath><clipPath
       clipPathUnits="userSpaceOnUse"
       id="clipPath46"><path
         d="M 1067.88,2575.891 V 1387.898 h 480.952 v 614.625 h 279.093 c 90.116,-138.827 111.82,-340.187 111.82,-469.062 v 0 c 0,-489.63 -344.424,-653.175 -623.578,-653.175 v 0 c -425.155,0 -636.261,257.17 -636.261,653.175 v 0 c 0,163.256 40.546,378.873 189.469,555.96 v 0 L 515.636,2488.93 C 227.029,2169.147 164.991,1870.499 164.991,1533.461 v 0 c 0,-913.349 583.319,-1330.407 1151.176,-1330.407 v 0 c 567.775,0 1141.79,364.622 1141.79,1327.108 v 0 c 0,469.001 -148.936,892.786 -425.086,1045.729 v 0 z"
         id="path44"
         inkscape:connector-curvature="0" /></clipPath><clipPath
       clipPathUnits="userSpaceOnUse"
       id="clipPath56"><path
         d="M 1.637,1.347 H 6566.666 V 5423.508 H 1.637 Z"
         id="path54"
         inkscape:connector-curvature="0" /></clipPath><clipPath
       clipPathUnits="userSpaceOnUse"
       id="clipPath68"><path
         d="m 2361.682,5217.648 -732.255,-632.319 c -161.394,409.967 -387.831,514.052 -654.604,514.052 v 0 c -390.913,0 -747.794,-323.075 -747.794,-944.867 v 0 -1188.136 h 2171.97 v 687.978 h -704.391 v 239.62 l 704.391,566.276 v 757.396 z M 717.222,4154.514 c 0,180.736 133.385,267.628 269.996,267.628 v 0 c 130.374,0 251.298,-79.8 251.298,-260.825 v 0 -506.961 H 717.222 Z"
         id="path66"
         inkscape:connector-curvature="0" /></clipPath><clipPath
       clipPathUnits="userSpaceOnUse"
       id="clipPath78"><path
         d="M 1.636,1.346 H 6566.665 V 5423.507 H 1.636 Z"
         id="path76"
         inkscape:connector-curvature="0" /></clipPath></defs><sodipodi:namedview
     pagecolor="#ffffff"
     bordercolor="#666666"
     borderopacity="1"
     objecttolerance="10"
     gridtolerance="10"
     guidetolerance="10"
     inkscape:pageopacity="0"
     inkscape:pageshadow="2"
     inkscape:window-width="1333"
     inkscape:window-height="899"
     id="namedview4"
     showgrid="false"
     inkscape:pagecheckerboard="true"
     inkscape:zoom="0.10486134"
     inkscape:cx="933.38763"
     inkscape:cy="3616.6533"
     inkscape:window-x="55"
     inkscape:window-y="27"
     inkscape:window-maximized="0"
     inkscape:current-layer="g10" /><g
     id="g10"
     inkscape:groupmode="layer"
     inkscape:label="logo_black_white-border"
     transform="matrix(1.3333333,0,0,-1.3333333,0,7233.3067)"><g
       id="g12"><g
         id="g14"
         clip-path="url(#clipPath18)"><g
           id="g20"
           transform="translate(5940.6362,1948.5863)"><path
             d="m 0,0 c 131.588,0 273.792,84.527 273.792,283.456 0,201.149 -135.9,285.617 -273.792,285.617 -131.519,0 -275.725,-86.827 -275.725,-285.617 C -275.725,86.827 -131.519,0 0,0"
             style="fill:#000000;fill-opacity:1;fill-rule:nonzero;stroke:none"
             id="path22"
             inkscape:connector-curvature="0" /></g><g
           id="g24"
           transform="translate(5730.5967,74.0388)"><path
             d="m 0,0 c -383.961,-2.359 -787.19,267.419 -787.19,854.897 0,219.416 78.58,422.865 229.229,587.4 l 205.807,-223.926 c -86.966,-96.065 -123.064,-235.394 -123.064,-363.474 0,-363.404 260.897,-505.102 477.3,-502.882 216.482,2.29 462.551,128.011 462.551,502.882 0,128.08 -53.088,297.214 -142.125,393.209 l 229.159,221.706 C 702.316,1305.188 770.152,1092.65 770.152,854.897 770.152,244.493 405.321,2.22 0,0 m -1642.306,512.12 c -180.155,-0.139 -348.278,46.565 -504.517,140.261 -156.377,93.557 -274.149,225.72 -353.453,396.648 -79.294,170.848 -118.98,347.565 -119.129,530.307 v 0.07 c -0.138,299.086 90.266,548.297 271.354,747.731 181.097,199.504 409.474,299.364 684.97,299.503 282.099,0.288 517.066,-100.356 704.963,-302.01 187.758,-201.575 281.741,-456.674 281.889,-765.127 0.219,-303.805 -90.692,-554.245 -272.929,-751.379 -182.168,-197.145 -413.27,-295.786 -693.148,-296.004 m -779.241,3474.084 c -0.139,218.276 73.496,405.886 220.993,562.561 147.496,156.803 332.885,235.314 556.464,235.453 221.28,0.149 406.461,-79.72 555.167,-239.904 148.646,-160.104 223.073,-357.675 223.291,-592.564 0.139,-225.501 -71.989,-415.985 -216.195,-571.58 -144.275,-155.515 -329.169,-233.381 -554.888,-233.599 -232.024,-0.07 -420.932,78.084 -566.417,234.531 -145.415,156.526 -218.266,358.171 -218.415,605.102 m 1729.916,1294.374 214.193,-111.963 c -29.587,-52.582 -42.274,-112.112 -42.274,-162.255 0,-98.424 50.797,-166.984 161.185,-166.984 h 61.463 v 313.192 H -40.251 V 4839.376 H 731.972 V 4510.148 H -40.251 v -198.79 h -256.813 v 198.79 h -61.463 c -303.379,0 -422.221,237.753 -422.221,457.248 0,125.721 31.876,214.907 89.117,313.182 M 210.04,2777.368 c 316.125,0 545.284,-235.473 545.284,-619.365 0,-381.81 -229.159,-617.273 -545.284,-617.273 -316.125,0 -549.438,242.263 -549.438,617.273 0,377.162 233.313,619.365 549.438,619.365 m -19.13,537.256 H 731.972 V 2989.985 H -316.115 v 297.203 l 133.66,11.468 c -120.914,100.574 -161.314,228.585 -159.024,365.694 0,253.73 110.317,470.926 517.63,470.926 H 731.972 V 3803.828 H 178.233 c -161.244,0 -243.918,-75.439 -243.918,-233.174 -2.151,-153.156 120.854,-256.03 256.595,-256.03 m 536.84,1924.404 c -45.277,44.989 -107.82,72.712 -176.875,72.712 h -806.747 -1121.741 l -273.276,-0.644 c -414.41,-0.287 -746.374,-129.943 -995.813,-388.907 -249.359,-258.746 -373.93,-578.092 -373.712,-957.9 0.07,-251.51 58.816,-467.428 176.152,-647.653 117.196,-180.453 297.431,-319.069 540.556,-416.204 -290.771,-83.169 -514.766,-239.467 -671.937,-468.637 -157.17,-229.159 -235.602,-513.338 -235.393,-852.805 0.148,-455.604 144.632,-835.847 433.4,-1140.574 288.898,-304.816 668.775,-457.04 1139.632,-456.614 l 1382.132,1.219 h 806.747 c 69.055,0 131.598,27.723 176.875,72.713 45.267,44.91 73.277,106.957 73.277,175.507 v 2416.174 2416.106 c 0,68.559 -28.01,130.666 -73.277,175.507"
             style="fill:#000000;fill-opacity:1;fill-rule:nonzero;stroke:none"
             id="path26"
             inkscape:connector-curvature="0" /></g></g></g><g
       id="g28"><g
         id="g30"
         clip-path="url(#clipPath34)"><g
           id="g36"
           transform="translate(1067.8809,2575.8904)"><path
             d="m 0,0 v -1187.992 h 480.952 v 614.625 h 279.092 c 90.116,-138.827 111.82,-340.187 111.82,-469.062 0,-489.631 -344.424,-653.174 -623.579,-653.174 -425.155,0 -636.261,257.169 -636.261,653.174 0,163.255 40.547,378.872 189.471,555.96 L -552.244,-86.96 c -288.607,-319.783 -350.646,-618.431 -350.646,-955.469 0,-913.349 583.319,-1330.407 1151.175,-1330.407 567.775,0 1141.792,364.622 1141.792,1327.107 0,469.002 -148.937,892.788 -425.087,1045.729 z"
             style="fill:#000000;fill-opacity:1;fill-rule:nonzero;stroke:none"
             id="path38"
             inkscape:connector-curvature="0" /></g></g></g><g
       id="g40"><g
         id="g42"
         clip-path="url(#clipPath46)"><path
           d="M 164.991,203.054 H 2457.958 V 2575.89 H 164.991 Z"
           style="fill:#000000;fill-opacity:1;fill-rule:nonzero;stroke:none"
           id="path48"
           inkscape:connector-curvature="0" /></g></g><g
       id="g50"><g
         id="g52"
         clip-path="url(#clipPath56)"><g
           id="g58"
           transform="translate(2361.6826,5217.6479)"><path
             d="m 0,0 -732.256,-632.319 c -161.394,409.967 -387.832,514.052 -654.604,514.052 -390.912,0 -747.793,-323.075 -747.793,-944.867 V -2251.27 H 37.316 v 687.978 h -704.391 v 239.621 L 37.316,-757.396 V 0 Z m -1644.461,-1063.134 c 0,180.737 133.386,267.628 269.996,267.628 130.375,0 251.297,-79.8 251.297,-260.825 v -506.961 h -521.293 z"
             style="fill:#000000;fill-opacity:1;fill-rule:nonzero;stroke:none"
             id="path60"
             inkscape:connector-curvature="0" /></g></g></g><g
       id="g62"><g
         id="g64"
         clip-path="url(#clipPath68)"><path
           d="M 227.023,2966.378 H 2398.999 V 5217.655 H 227.023 Z"
           style="fill:#000000;fill-opacity:1;fill-rule:nonzero;stroke:none"
           id="path70"
           inkscape:connector-curvature="0" /></g></g><g
       id="g72"><g
         id="g74"
         clip-path="url(#clipPath78)"><g
           id="g80"
           transform="translate(6290.5435,32.2813)"><path
             d="m 0,0 h -6011.315 c -136.453,0 -247.067,110.615 -247.067,247.067 v 4865.76 c 0,136.452 110.614,247.067 247.067,247.067 H 0 c 136.452,0 247.067,-110.615 247.067,-247.067 V 247.067 C 247.067,110.615 136.452,0 0,0 Z"
             style="fill:none;stroke:#000000;stroke-width:61.60100174;stroke-linecap:butt;stroke-linejoin:miter;stroke-miterlimit:10;stroke-dasharray:none;stroke-opacity:1"
             id="path82"
             inkscape:connector-curvature="0" /></g></g></g></g></svg>