<?xml version="1.0" encoding="UTF-8" standalone="no"?>
<!-- Created with Inkscape (http://www.inkscape.org/) -->

<svg
   xmlns:dc="http://purl.org/dc/elements/1.1/"
   xmlns:cc="http://creativecommons.org/ns#"
   xmlns:rdf="http://www.w3.org/1999/02/22-rdf-syntax-ns#"
   xmlns:svg="http://www.w3.org/2000/svg"
   xmlns="http://www.w3.org/2000/svg"
   xmlns:sodipodi="http://sodipodi.sourceforge.net/DTD/sodipodi-0.dtd"
   xmlns:inkscape="http://www.inkscape.org/namespaces/inkscape"
   version="1.1"
   id="svg2"
   xml:space="preserve"
   width="468.25467"
   height="387.52133"
   viewBox="0 0 468.25467 387.52133"
   sodipodi:docname="logo_black_white.svg"
   inkscape:version="0.92.3 (2405546, 2018-03-11)"><metadata
     id="metadata8"><rdf:RDF><cc:Work
         rdf:about=""><dc:format>image/svg+xml</dc:format><dc:type
           rdf:resource="http://purl.org/dc/dcmitype/StillImage" /><dc:title></dc:title></cc:Work></rdf:RDF></metadata><defs
     id="defs6"><clipPath
       clipPathUnits="userSpaceOnUse"
       id="clipPath18"><path
         d="M 0,290.641 H 351.191 V 0 H 0 Z"
         id="path16"
         inkscape:connector-curvature="0" /></clipPath><clipPath
       clipPathUnits="userSpaceOnUse"
       id="clipPath50"><path
         d="M 53.254,137.418 V 72.636 h 26.227 v 33.516 h 15.218 c 4.914,-7.57 6.098,-18.55 6.098,-25.578 v 0 c 0,-26.699 -18.782,-35.617 -34.004,-35.617 v 0 c -23.184,0 -34.695,14.024 -34.695,35.617 v 0 c 0,8.902 2.211,20.661 10.332,30.317 v 0 L 23.141,132.676 C 7.402,115.239 4.019,98.953 4.019,80.574 v 0 C 4.019,30.769 35.828,8.027 66.793,8.027 v 0 c 30.961,0 62.262,19.883 62.262,72.367 v 0 c 0,25.575 -8.121,48.684 -23.18,57.024 v 0 z"
         id="path48"
         inkscape:connector-curvature="0" /></clipPath><clipPath
       clipPathUnits="userSpaceOnUse"
       id="clipPath60"><path
         d="M 0,290.641 H 351.191 V 0 H 0 Z"
         id="path58"
         inkscape:connector-curvature="0" /></clipPath><clipPath
       clipPathUnits="userSpaceOnUse"
       id="clipPath72"><path
         d="m 123.805,281.472 -39.93,-34.48 c -8.801,22.356 -21.149,28.032 -35.695,28.032 v 0 C 26.863,275.024 7.402,257.406 7.402,223.5 v 0 -64.79 H 125.84 v 37.517 H 87.43 v 13.066 l 38.41,30.879 v 41.3 z M 34.133,223.5 c 0,9.856 7.273,14.594 14.723,14.594 v 0 c 7.109,0 13.703,-4.351 13.703,-14.223 v 0 -27.644 H 34.133 Z"
         id="path70"
         inkscape:connector-curvature="0" /></clipPath></defs><sodipodi:namedview
     pagecolor="#ffffff"
     bordercolor="#666666"
     borderopacity="1"
     objecttolerance="10"
     gridtolerance="10"
     guidetolerance="10"
     inkscape:pageopacity="0"
     inkscape:pageshadow="2"
     inkscape:window-width="1668"
     inkscape:window-height="736"
     id="namedview4"
     showgrid="false"
     inkscape:pagecheckerboard="true"
     inkscape:zoom="1.3702471"
     inkscape:cx="234.12733"
     inkscape:cy="193.76067"
     inkscape:window-x="55"
     inkscape:window-y="27"
     inkscape:window-maximized="0"
     inkscape:current-layer="g10" /><g
     id="g10"
     inkscape:groupmode="layer"
     inkscape:label="logo_black_white"
     transform="matrix(1.3333333,0,0,-1.3333333,0,387.52133)"><g
       id="g12"><g
         id="g14"
         clip-path="url(#clipPath18)"><g
           id="g20"
           transform="translate(164.6758,87.1134)"><path
             d="m 0,0 c 0.008,-9.965 2.172,-19.602 6.496,-28.918 4.324,-9.32 10.746,-16.527 19.274,-21.629 8.519,-5.109 17.687,-7.656 27.511,-7.648 15.262,0.011 27.864,5.39 37.797,16.14 9.938,10.75 14.895,24.407 14.883,40.973 -0.008,16.82 -5.133,30.73 -15.371,41.723 C 80.344,51.637 67.531,57.125 52.148,57.109 37.125,57.102 24.672,51.656 14.797,40.777 4.922,29.902 -0.008,16.312 0,0.004 Z m 67.715,203.527 h 61.168 43.992 c 3.766,0 7.176,-1.511 9.644,-3.965 2.469,-2.445 3.997,-5.832 3.997,-9.57 V 58.242 -73.512 c 0,-3.738 -1.528,-7.121 -3.997,-9.57 -2.468,-2.453 -5.878,-3.965 -9.644,-3.965 h -43.992 l -75.367,-0.066 c -25.676,-0.024 -46.391,8.277 -62.145,24.898 -15.746,16.617 -23.625,37.352 -23.633,62.195 -0.011,18.512 4.266,34.008 12.836,46.504 8.571,12.496 20.785,21.02 36.641,25.555 -13.258,5.297 -23.086,12.855 -29.477,22.695 -6.398,9.828 -9.601,21.602 -9.605,35.317 -0.012,20.711 6.781,38.125 20.379,52.234 13.601,14.121 31.703,21.192 54.301,21.207 M 10.789,131.246 c 0.008,-13.465 3.981,-24.461 11.91,-32.996 7.934,-8.531 18.235,-12.793 30.887,-12.789 12.309,0.012 22.391,4.258 30.258,12.738 7.863,8.485 11.797,18.871 11.789,31.168 -0.012,12.809 -4.071,23.582 -12.176,32.313 -8.109,8.734 -18.207,13.089 -30.273,13.082 -12.192,-0.008 -22.301,-4.289 -30.344,-12.84 -8.043,-8.543 -12.059,-18.774 -12.051,-30.676"
             style="fill:#231f20;fill-opacity:1;fill-rule:nonzero;stroke:none"
             id="path22"
             inkscape:connector-curvature="0" /></g><g
           id="g24"
           transform="translate(337.5938,81.1407)"><path
             d="m 0,0 c 8.215,-8.977 11.914,-20.566 11.914,-33.531 0,-33.285 -19.894,-46.496 -41.996,-46.617 -20.938,-0.129 -42.926,14.582 -42.926,46.617 0,11.965 4.285,23.058 12.5,32.031 l 11.223,-12.211 c -4.742,-5.238 -6.711,-12.836 -6.711,-19.82 0,-19.817 14.226,-27.543 26.027,-27.422 11.805,0.125 25.223,6.98 25.223,27.422 0,6.984 -2.895,16.207 -7.75,21.441 z"
             style="fill:#ffffff;fill-opacity:1;fill-rule:nonzero;stroke:none"
             id="path26"
             inkscape:connector-curvature="0" /></g><g
           id="g28"
           transform="translate(318.9648,134.2422)"><path
             d="m 0,0 c -7.172,0 -15.035,-4.734 -15.035,-15.574 0,-10.723 7.863,-15.457 15.035,-15.457 7.176,0 14.93,4.609 14.93,15.457 C 14.93,-4.605 7.52,0 0,0 m 0,-49.234 c -17.238,0 -29.961,13.211 -29.961,33.66 0,20.566 12.723,33.773 29.961,33.773 17.238,0 29.734,-12.84 29.734,-33.773 0,-20.821 -12.496,-33.66 -29.734,-33.66"
             style="fill:#ffffff;fill-opacity:1;fill-rule:nonzero;stroke:none"
             id="path30"
             inkscape:connector-curvature="0" /></g><g
           id="g32"
           transform="translate(347.4258,208.4142)"><path
             d="m 0,0 h -30.195 c -8.793,0 -13.301,-4.113 -13.301,-12.715 -0.117,-8.351 6.59,-13.961 13.992,-13.961 H 0 v -17.703 h -57.152 v 16.207 l 7.289,0.625 c -6.594,5.485 -8.797,12.465 -8.672,19.942 0,13.835 6.015,25.679 28.226,25.679 H 0 Z"
             style="fill:#ffffff;fill-opacity:1;fill-rule:nonzero;stroke:none"
             id="path34"
             inkscape:connector-curvature="0" /></g><g
           id="g36"
           transform="translate(347.4258,246.9297)"><path
             d="M 0,0 H -42.109 V -10.84 H -56.113 V 0 h -3.352 c -16.543,0 -23.023,12.965 -23.023,24.934 0,6.855 1.738,11.718 4.859,17.078 l 11.68,-6.106 c -1.614,-2.867 -2.305,-6.113 -2.305,-8.847 0,-5.368 2.77,-9.106 8.789,-9.106 h 3.352 v 17.078 h 14.004 V 17.953 H 0 Z"
             style="fill:#ffffff;fill-opacity:1;fill-rule:nonzero;stroke:none"
             id="path38"
             inkscape:connector-curvature="0" /></g><g
           id="g40"
           transform="translate(53.2539,137.418)"><path
             d="m 0,0 v -64.781 h 26.227 v 33.515 h 15.218 c 4.914,-7.57 6.098,-18.55 6.098,-25.578 0,-26.699 -18.781,-35.617 -34.004,-35.617 -23.184,0 -34.695,14.023 -34.695,35.617 0,8.903 2.211,20.66 10.332,30.317 l -19.289,21.785 c -15.739,-17.438 -19.121,-33.723 -19.121,-52.102 0,-49.804 31.808,-72.547 62.773,-72.547 30.961,0 62.262,19.883 62.262,72.368 0,25.574 -8.121,48.683 -23.18,57.023 z"
             style="fill:#231f20;fill-opacity:1;fill-rule:nonzero;stroke:none"
             id="path42"
             inkscape:connector-curvature="0" /></g></g></g><g
       id="g44"><g
         id="g46"
         clip-path="url(#clipPath50)"><path
           d="M 4.02,8.027 H 129.055 V 137.418 H 4.02 Z"
           style="fill:#231f20;fill-opacity:1;fill-rule:nonzero;stroke:none"
           id="path52"
           inkscape:connector-curvature="0" /></g></g><g
       id="g54"><g
         id="g56"
         clip-path="url(#clipPath60)"><g
           id="g62"
           transform="translate(123.8047,281.4727)"><path
             d="m 0,0 -39.93,-34.48 c -8.8,22.355 -21.148,28.031 -35.695,28.031 -21.316,0 -40.777,-17.617 -40.777,-51.524 v -64.789 H 2.035 v 37.516 h -38.41 v 13.066 l 38.41,30.879 V 0 Z m -89.672,-57.973 c 0,9.856 7.274,14.594 14.723,14.594 7.109,0 13.703,-4.351 13.703,-14.223 v -27.644 h -28.426 z"
             style="fill:#231f20;fill-opacity:1;fill-rule:nonzero;stroke:none"
             id="path64"
             inkscape:connector-curvature="0" /></g></g></g><g
       id="g66"><g
         id="g68"
         clip-path="url(#clipPath72)"><path
           d="M 7.402,158.711 H 125.839 V 281.473 H 7.402 Z"
           style="fill:#231f20;fill-opacity:1;fill-rule:nonzero;stroke:none"
           id="path74"
           inkscape:connector-curvature="0" /></g></g></g></svg>