<?xml version="1.0" encoding="UTF-8" standalone="no"?>
<svg
   xmlns:dc="http://purl.org/dc/elements/1.1/"
   xmlns:cc="http://creativecommons.org/ns#"
   xmlns:rdf="http://www.w3.org/1999/02/22-rdf-syntax-ns#"
   xmlns:svg="http://www.w3.org/2000/svg"
   xmlns="http://www.w3.org/2000/svg"
   xmlns:sodipodi="http://sodipodi.sourceforge.net/DTD/sodipodi-0.dtd"
   xmlns:inkscape="http://www.inkscape.org/namespaces/inkscape"
   id="svg23"
   version="1.2"
   viewBox="0 0 520.62 546.86"
   height="546.86pt"
   width="520.62pt"
   sodipodi:docname="gradle.svg"
   inkscape:version="0.92.3 (2405546, 2018-03-11)">
  <sodipodi:namedview
     pagecolor="#ffffff"
     bordercolor="#666666"
     borderopacity="1"
     objecttolerance="10"
     gridtolerance="10"
     guidetolerance="10"
     inkscape:pageopacity="0"
     inkscape:pageshadow="2"
     inkscape:window-width="2505"
     inkscape:window-height="1352"
     id="namedview16"
     showgrid="false"
     inkscape:zoom="1.5730718"
     inkscape:cx="343.58365"
     inkscape:cy="364.57332"
     inkscape:window-x="55"
     inkscape:window-y="27"
     inkscape:window-maximized="1"
     inkscape:current-layer="surface550"
     inkscape:pagecheckerboard="true" />
  <metadata
     id="metadata29">
    <rdf:RDF>
      <cc:Work
         rdf:about="">
        <dc:format>image/svg+xml</dc:format>
        <dc:type
           rdf:resource="http://purl.org/dc/dcmitype/StillImage" />
        <dc:title></dc:title>
      </cc:Work>
    </rdf:RDF>
  </metadata>
  <defs
     id="defs27">
    <filter
       style="color-interpolation-filters:sRGB;"
       inkscape:label="Invert"
       id="filter823">
      <feColorMatrix
         values="1 0 0 0 0 0 1 0 0 0 0 0 1 0 0 -0.21 -0.72 -0.07 2 0 "
         result="fbSourceGraphic"
         id="feColorMatrix821" />
      <feColorMatrix
         result="fbSourceGraphicAlpha"
         in="fbSourceGraphic"
         values="0 0 0 -1 0 0 0 0 -1 0 0 0 0 -1 0 0 0 0 1 0"
         id="feColorMatrix825" />
      <feColorMatrix
         id="feColorMatrix827"
         values="-1 0 0 0 1 0 -1 0 0 1 0 0 -1 0 1 0.21 0.72 0.07 1 0 "
         result="color2"
         in="fbSourceGraphic" />
    </filter>
    <filter
       style="color-interpolation-filters:sRGB;"
       inkscape:label="Invert"
       id="filter831">
      <feColorMatrix
         values="-1 0 0 0 1 0 -1 0 0 1 0 0 -1 0 1 0.21 0.72 0.07 1 0 "
         result="color2"
         id="feColorMatrix829" />
    </filter>
    <filter
       style="color-interpolation-filters:sRGB;"
       inkscape:label="Blur"
       id="filter4662">
      <feColorMatrix
         values="-1 0 0 0 1 0 -1 0 0 1 0 0 -1 0 1 0.21 0.72 0.07 1 0 "
         result="fbSourceGraphic"
         id="feColorMatrix4660" />
      <feColorMatrix
         result="fbSourceGraphicAlpha"
         in="fbSourceGraphic"
         values="0 0 0 -1 0 0 0 0 -1 0 0 0 0 -1 0 0 0 0 1 0"
         id="feColorMatrix4675" />
      <feGaussianBlur
         id="feGaussianBlur4677"
         stdDeviation="0.3 0.3"
         result="fbSourceGraphic"
         in="fbSourceGraphic" />
      <feColorMatrix
         result="fbSourceGraphicAlpha"
         in="fbSourceGraphic"
         values="0 0 0 -1 0 0 0 0 -1 0 0 0 0 -1 0 0 0 0 1 0"
         id="feColorMatrix4679" />
      <feGaussianBlur
         id="feGaussianBlur4681"
         stdDeviation="0.3 0.3"
         result="blur"
         in="fbSourceGraphic" />
    </filter>
  </defs>
  <g
     id="surface550">
    <path
       id="path2"
       d="m 122.32422,454.73828 c 0,0 0.15625,13.57813 -0.0625,18.09375 -0.65625,13.73828 -9.54688,35.62109 -42.015626,35.51563 -29.003906,-0.10157 -44.222656,-23.30079 -44.140625,-48.57813 0.101562,-29.53516 19.726562,-50.22266 45.539062,-50.13281 19.554689,0.0625 33.882809,12.08594 39.550779,27.80469 l -16.78515,6.72656 c -1.71485,-5.19141 -6.72266,-18.64844 -22.687504,-18.69922 -17.695312,-0.0625 -26.394531,15.33984 -26.457031,33.83203 -0.07031,20.625 11.199219,32.5 26.5,32.55469 9.84375,0.0312 22.757815,-5.11328 24.410155,-21.73828 l -24.605468,-0.082 0.05469,-15.4336 40.699218,0.13672"
       style="fill:#4fbd35;fill-opacity:1;fill-rule:nonzero;stroke:none"
       inkscape:connector-curvature="0" />
    <path
       id="path4"
       d="m 147.33594,439.65625 -0.0312,9.44922 c 2.0039,-3.45313 6.42187,-11.28906 21.32031,-10.83985 v 16.36329 c -3.45703,0.12109 -9.5,0.23437 -14.4375,3.9414 -6.80078,5.16797 -6.95703,11.95313 -6.99609,22.9961 l -0.082,25.23046 h -15.43359 v -67.1914 l 15.66016,0.0508"
       style="fill:#4fbd35;fill-opacity:1;fill-rule:nonzero;stroke:none"
       inkscape:connector-curvature="0" />
    <path
       id="path6"
       d="m 216.0625,473.28125 c -3.19922,1.58594 -6.79297,2.77344 -13.98047,3.94531 -5.72266,0.78125 -13.3125,2.08594 -13.33594,9.13281 -0.0156,5.19141 4.36328,7.86719 10.75,7.88672 8.11328,0.0274 13.84766,-3.67578 15.58985,-7.66406 0.9375,-1.99219 0.94531,-3.98437 0.95312,-5.98047 z M 175,459.30859 c 0.27734,-3.32422 0.55469,-6.11718 2.69531,-9.96875 6.42578,-11.55468 22.25781,-11.5 26.51563,-11.48437 6.38281,0.0195 14.09765,0.84375 19.9414,4.32422 7.83203,4.8164 7.94532,11.0664 7.91797,18.2539 v 35.25391 c -0.0156,5.05469 -0.14062,7.10937 2.77344,11.10937 h -18.89063 c -0.1289,-1.59765 -0.38671,-4.64453 -0.38281,-5.57812 -3.46875,2.91797 -10.53515,6.75 -19.71484,6.71875 -15.03125,-0.0508 -24.04688,-9.39453 -24.00781,-20.83594 0.0117,-3.32422 0.82031,-6.38281 2.16015,-9.03906 4.82031,-9.5625 15.07031,-11.65625 21.46094,-12.83203 21.78516,-3.63281 20.45703,-5.78516 20.15234,-9.02344 -0.28906,-3.09766 -3.48047,-5.95312 -10.78906,-5.97656 -6.65234,-0.0234 -10.25,2.09375 -11.85547,4.21484 -1.73437,2.125 -1.60937,3.98828 -1.61328,5.85156 L 175,459.30859"
       style="fill:#4fbd35;fill-opacity:1;fill-rule:nonzero;stroke:none"
       inkscape:connector-curvature="0" />
    <path
       id="path8"
       d="m 283.82812,459.01172 c -2.38281,-3.60156 -6.36328,-6.14453 -11.6875,-6.16016 -10.77343,-0.0351 -15.99609,9.65625 -16.03125,20.16797 -0.004,1.19922 0.0625,21.15234 15.625,21.20703 8.25,0.0274 15.71875,-6.0664 15.63672,-20.4375 -0.11718,-4.25781 -0.6289,-10.3789 -3.54297,-14.77734 z m 19.71485,-46.23438 v 94.01953 h -15.83203 v -6.53125 c -4.94532,5.96875 -11.89844,8.33985 -18.81641,8.31641 -15.83203,-0.0508 -29.49609,-11.9375 -29.42187,-33.89062 0.0664,-19.82032 11.30078,-36.67969 30.32421,-36.61719 6.51954,0.0234 12.875,1.90625 17.91407,7.51172 v -32.85938 l 15.83203,0.0508"
       style="fill:#4fbd35;fill-opacity:1;fill-rule:nonzero;stroke:none"
       inkscape:connector-curvature="0" />
    <path
       id="path10"
       d="m 331.02734,412.87109 v 93.92578 h -16.09765 v -93.97656 l 16.09765,0.0508"
       style="fill:#4fbd35;fill-opacity:1;fill-rule:nonzero;stroke:none"
       inkscape:connector-curvature="0" />
    <path
       id="path12"
       d="m 386.91406,465.21094 c -1.42969,-10.37891 -7.80469,-13.99219 -14.85547,-14.01953 -8.51172,-0.0274 -14.38281,4.98046 -16.27734,14.01953 z m 15.84375,25.94922 c -7.41797,13.05859 -16.79297,17.82031 -30.35937,17.77343 -17.42969,-0.0586 -34.07422,-11.15625 -34.07422,-35.63672 0,-24.09375 14.48828,-34.9414 33.24609,-34.875 17.5625,0.0586 24.84375,10.58985 26.16797,12.59375 5.42578,7.73438 6.58594,19.3125 6.69531,25.96485 h -49.22265 c 1.82422,10.51562 8.32422,16.35937 18.83593,16.39062 10.90625,0.0391 13.8125,-6.3789 15.81641,-9.16797 l 12.89453,6.95704"
       style="fill:#4fbd35;fill-opacity:1;fill-rule:nonzero;stroke:none"
       inkscape:connector-curvature="0" />
    <g
       id="gradlephant"
       transform="matrix(11.203374,0,0,11.203374,47.20726,41.527764)"
       style="fill:#404040;fill-opacity:1;fill-rule:evenodd;stroke:#ffffff;stroke-width:1;stroke-linecap:round;stroke-linejoin:round">
      <path
         d="M 37.824525,3.2786751 C 36.438478,0.78251237 33.961414,0.03656713 32.211308,0.00115133 30.064177,-0.04220698 28.300806,1.1487794 28.634344,1.9307915 c 0.07147,0.1678344 0.474035,1.0439848 0.721162,1.4056946 0.357748,0.5232945 0.997908,0.121221 1.22237,0.00182 0.669651,-0.3565016 1.385275,-0.4719936 2.197098,-0.3772043 0.776022,0.090623 1.807026,0.5697777 2.498698,1.9008649 C 36.901309,7.9948354 31.876741,14.442464 25.587434,9.977469 19.297998,5.5126046 13.181771,6.9919954 10.412637,7.8919733 7.6436316,8.7916908 6.3707804,9.6964863 7.4650152,11.789274 c 1.4870106,2.84368 0.9830957,1.975352 2.4359827,4.325154 2.2301621,3.606914 7.3031831,-1.720661 7.3031831,-1.720661 -3.467151,3.440697 -6.18495,3.723884 -7.3031831,1.720661 C 8.7827647,14.111205 7.8821302,12.588603 7.8821302,12.588603 -1.850597,16.144505 0.17496719,31 0.17496719,31 H 4.8720509 c 1.1976443,-5.431377 5.4794161,-5.231122 6.2131981,0 h 3.584047 c 3.169894,-10.605729 11.20377,0 11.20377,0 h 4.6721 c -1.308394,-7.234718 2.628121,-9.507709 5.109048,-13.748361 2.481055,-4.241041 4.831271,-9.429065 2.170311,-13.9729639 z"
         id="Stroke-383"
         inkscape:connector-curvature="0"
         style="fill:#404040;fill-opacity:1" />
      <path
         d="M 29,15.451597 C 28.839311,16.12239 27.451412,17.409166 25.664115,16.872192 23.302082,16.16281 24.146932,14 24.146932,14"
         id="Path"
         inkscape:connector-curvature="0"
         style="fill:#404040;fill-opacity:1" />
    </g>
  </g>
</svg>
