<?xml version="1.0" encoding="UTF-8" standalone="no"?>
<svg
   xmlns:dc="http://purl.org/dc/elements/1.1/"
   xmlns:cc="http://creativecommons.org/ns#"
   xmlns:rdf="http://www.w3.org/1999/02/22-rdf-syntax-ns#"
   xmlns:svg="http://www.w3.org/2000/svg"
   xmlns="http://www.w3.org/2000/svg"
   id="svg827"
   version="1.1"
   viewBox="0 0 71.865135 36.147705"
   height="36.147705mm"
   width="71.865135mm">
  <defs
     id="defs821" />
  <metadata
     id="metadata824">
    <rdf:RDF>
      <cc:Work
         rdf:about="">
        <dc:format>image/svg+xml</dc:format>
        <dc:type
           rdf:resource="http://purl.org/dc/dcmitype/StillImage" />
        <dc:title></dc:title>
      </cc:Work>
    </rdf:RDF>
  </metadata>
  <g
     transform="translate(-1.1090997,-0.73566389)"
     id="layer1">
    <g
       transform="matrix(0.33072917,0,0,-0.33072917,-19.474744,118.84885)"
       id="g4699">
      <path
         d="m 238.03076,247.83263 -67.144,26.285 -67.149,-26.277 26.516,41.89 -68.015997,25.657 83.534997,-0.395 25.11,42.137 25.113,-42.141 83.535,0.387 -68.015,-25.648 26.515,-41.895"
         style="fill:#000000;fill-opacity:1;fill-rule:nonzero;stroke:none"
         id="path114" />
      <path
         d="m 238.03076,247.83263 -67.144,26.285 -67.149,-26.277 26.516,41.89 -68.015997,25.657 83.534997,-0.395 25.11,42.137 25.113,-42.141 83.535,0.387 -68.015,-25.648 26.515,-41.895"
         style="fill:#000000;fill-opacity:1;fill-rule:nonzero;stroke:none"
         id="path214" />
      <path
         d="m 228.94876,255.32463 -58.008,22.707 -58.004,-22.703 22.907,36.192 -58.757997,22.16 72.163997,-0.34 21.691,36.398 21.696,-36.398 72.16,0.332 -58.754,-22.156 22.906,-36.192"
         style="fill:#619cbc;fill-opacity:1;fill-rule:nonzero;stroke:none"
         id="path116" />
      <path
         d="m 126.41776,335.59863 c 5.793,0 2.414,-14.621 0.355,-19.032 -1.765,-3.773 -5.738,-9.218 -10.445,-9.218 -5.648,0 -5.48,6.39 -3.23,11.199 1.214,2.601 3.086,5.523 5.664,7.668 -0.661,-2.238 1.57,-3.77 0.668,-5.699 -0.618,-1.321 -1.891,-2.758 -2.555,-4.176 -1.07,-2.293 -0.66,-6.36 1.93,-6.36 2.316,0 4.375,2.899 5.218,4.704 1.731,3.703 6.055,19.488 1.219,19.488 -5.566,0 -15.156,-13.699 -17.164,-17.996 -3.586,-7.672 -0.988,-17.117 7.18,-17.117 5.519,0 10.062,5.359 12.254,10.05 1.304,2.793 2.015,5.575 2.297,8.196 l 1.07,0.199 c 0.238,-7.219 7.797,-19.168 4.582,-26.055 -4.121,-8.808 -16.438,-8.73 -23.469,-11.859 -1.476,3.492 -3.48,6.738 -6.301,9.215 6.274,2.132 21.688,5.711 25.039,12.882 1.411,3.012 0.45,8.008 -1.175,9.7 -0.278,-1.063 -0.661,-2.149 -1.172,-3.239 -2.867,-6.14 -9.012,-10.898 -15.348,-10.898 -8.82,0 -12.559,6.398 -8.406,15.281 2.488,5.328 15.211,23.067 21.789,23.067"
         style="fill:#000000;fill-opacity:1;fill-rule:nonzero;stroke:none"
         id="path118" />
      <path
         d="m 126.41776,335.59863 c 5.793,0 2.414,-14.621 0.355,-19.032 -1.765,-3.773 -5.738,-9.218 -10.445,-9.218 -5.648,0 -5.48,6.39 -3.23,11.199 1.214,2.601 3.086,5.523 5.664,7.668 -0.661,-2.238 1.57,-3.77 0.668,-5.699 -0.618,-1.321 -1.891,-2.758 -2.555,-4.176 -1.07,-2.293 -0.66,-6.36 1.93,-6.36 2.316,0 4.375,2.899 5.218,4.704 1.731,3.703 6.055,19.488 1.219,19.488 -5.566,0 -15.156,-13.699 -17.164,-17.996 -3.586,-7.672 -0.988,-17.117 7.18,-17.117 5.519,0 10.062,5.359 12.254,10.05 1.304,2.793 2.015,5.575 2.297,8.196 l 1.07,0.199 c 0.238,-7.219 7.797,-19.168 4.582,-26.055 -4.121,-8.808 -16.438,-8.73 -23.469,-11.859 -1.476,3.492 -3.48,6.738 -6.301,9.215 6.274,2.132 21.688,5.711 25.039,12.882 1.411,3.012 0.45,8.008 -1.175,9.7 -0.278,-1.063 -0.661,-2.149 -1.172,-3.239 -2.867,-6.14 -9.012,-10.898 -15.348,-10.898 -8.82,0 -12.559,6.398 -8.406,15.281 2.488,5.328 15.211,23.067 21.789,23.067 z"
         style="fill:none;stroke:#000000;stroke-width:9.75339985;stroke-linecap:butt;stroke-linejoin:round;stroke-miterlimit:3.8636899;stroke-dasharray:none;stroke-opacity:1"
         id="path120" />
      <path
         d="m 141.48376,314.43463 c 0.352,-0.868 1.364,-5.793 2.133,-5.793 1.66,0 4.664,4.566 5.469,5.75 1.476,-0.977 0.656,-3.028 3.394,-3.028 1.243,0 1.864,2.696 3.157,2.742 0.043,-1.089 0.113,-2.078 -0.477,-3.335 -0.906,-1.942 -3.203,-4.575 -5.457,-4.575 -1.617,0 -3.867,1.969 -4.312,1.969 -0.481,0 -1.36,-0.23 -1.641,-0.828 -1.176,-2.516 1.965,-10.91 5.117,-10.91 1.684,0 3.692,1.246 5.453,2.015 -0.461,-3.023 -0.523,-5.574 0.082,-8.175 -1.605,-1.028 -3.484,-1.461 -4.992,-1.461 -7.742,0 -3.473,18.183 -10.609,22.058 l 2.683,3.571"
         style="fill:#000000;fill-opacity:1;fill-rule:nonzero;stroke:none"
         id="path122" />
      <path
         d="m 141.48376,314.43463 c 0.352,-0.868 1.364,-5.793 2.133,-5.793 1.66,0 4.664,4.566 5.469,5.75 1.476,-0.977 0.656,-3.028 3.394,-3.028 1.243,0 1.864,2.696 3.157,2.742 0.043,-1.089 0.113,-2.078 -0.477,-3.335 -0.906,-1.942 -3.203,-4.575 -5.457,-4.575 -1.617,0 -3.867,1.969 -4.312,1.969 -0.481,0 -1.36,-0.23 -1.641,-0.828 -1.176,-2.516 1.965,-10.91 5.117,-10.91 1.684,0 3.692,1.246 5.453,2.015 -0.461,-3.023 -0.523,-5.574 0.082,-8.175 -1.605,-1.028 -3.484,-1.461 -4.992,-1.461 -7.742,0 -3.473,18.183 -10.609,22.058 z"
         style="fill:none;stroke:#000000;stroke-width:9.75339985;stroke-linecap:butt;stroke-linejoin:round;stroke-miterlimit:3.8636899;stroke-dasharray:none;stroke-opacity:1"
         id="path124" />
      <path
         d="m 171.23776,315.89163 c 5.852,0 8.16,-10.629 5.535,-16.246 -2.035,-4.356 -5.644,-7.516 -10.273,-7.516 -8.168,0 -7.145,11.246 -3.957,18.066 0.879,1.879 3.883,5.973 6.23,5.973 0.864,0 1.578,-0.277 2.465,-0.277 z m -0.179,-0.993 c -0.922,0 -1.731,-0.461 -2.161,-1.375 -0.894,-1.918 3.578,-3.859 2.934,-5.23 -0.402,-0.863 -1.941,-1.672 -2.719,-1.672 -3.875,0 -3.844,5.094 -1.531,8.414 -1.438,-0.926 -2.379,-2.336 -2.992,-3.648 -2.27,-4.86 -0.469,-11.543 4.719,-11.543 2.863,0 6.164,2.597 7.445,5.343 1.578,3.372 -2.457,9.711 -5.695,9.711"
         style="fill:#000000;fill-opacity:1;fill-rule:evenodd;stroke:none"
         id="path126" />
      <path
         d="m 171.23776,315.89163 c 5.852,0 8.16,-10.629 5.535,-16.246 -2.035,-4.356 -5.644,-7.516 -10.273,-7.516 -8.168,0 -7.145,11.246 -3.957,18.066 0.879,1.879 3.883,5.973 6.23,5.973 0.864,0 1.578,-0.277 2.465,-0.277 z"
         style="fill:none;stroke:#000000;stroke-width:9.75339985;stroke-linecap:butt;stroke-linejoin:round;stroke-miterlimit:3.8636899;stroke-dasharray:none;stroke-opacity:1"
         id="path128" />
      <path
         d="m 171.05876,314.89863 c -0.922,0 -1.731,-0.461 -2.161,-1.375 -0.894,-1.918 3.578,-3.859 2.934,-5.23 -0.402,-0.863 -1.941,-1.672 -2.719,-1.672 -3.875,0 -3.844,5.094 -1.531,8.414 -1.438,-0.926 -2.379,-2.336 -2.992,-3.648 -2.27,-4.86 -0.469,-11.543 4.719,-11.543 2.863,0 6.164,2.597 7.445,5.343 1.578,3.372 -2.457,9.711 -5.695,9.711 z"
         style="fill:none;stroke:#000000;stroke-width:9.75339985;stroke-linecap:butt;stroke-linejoin:round;stroke-miterlimit:3.8636899;stroke-dasharray:none;stroke-opacity:1"
         id="path130" />
      <path
         d="m 197.83176,298.39163 c -1.531,-3.27 -4.379,-5.067 -7.59,-5.067 -10.18,0 -12.199,9.375 -7.785,18.817 1.039,2.226 2.75,4.695 5.359,4.695 8.18,0 13.879,-10.176 10.016,-18.445 z m -8.125,17.257 c -0.75,0 -1.41,-0.273 -1.77,-1.043 -0.793,-1.695 3.516,-3.207 3.524,-4.957 -0.449,-0.539 -1.711,-1.14 -2.262,-1.14 -3.101,0 -5.441,4.246 -2.793,7.406 -1.074,-0.691 -1.715,-1.723 -2.168,-2.695 -2.687,-5.746 1.145,-11.555 6.723,-11.555 2.32,0 5.312,1.305 6.519,3.887 1.707,3.652 -4.371,10.097 -7.773,10.097"
         style="fill:#000000;fill-opacity:1;fill-rule:evenodd;stroke:none"
         id="path132" />
      <path
         d="m 197.83176,298.39163 c -1.531,-3.27 -4.379,-5.067 -7.59,-5.067 -10.18,0 -12.199,9.375 -7.785,18.817 1.039,2.226 2.75,4.695 5.359,4.695 8.18,0 13.879,-10.176 10.016,-18.445 z"
         style="fill:none;stroke:#000000;stroke-width:9.75339985;stroke-linecap:butt;stroke-linejoin:round;stroke-miterlimit:3.8636899;stroke-dasharray:none;stroke-opacity:1"
         id="path134" />
      <path
         d="m 189.70676,315.64863 c -0.75,0 -1.41,-0.273 -1.77,-1.043 -0.793,-1.695 3.516,-3.207 3.524,-4.957 -0.449,-0.539 -1.711,-1.14 -2.262,-1.14 -3.101,0 -5.441,4.246 -2.793,7.406 -1.074,-0.691 -1.715,-1.723 -2.168,-2.695 -2.687,-5.746 1.145,-11.555 6.723,-11.555 2.32,0 5.312,1.305 6.519,3.887 1.707,3.652 -4.371,10.097 -7.773,10.097 z"
         style="fill:none;stroke:#000000;stroke-width:9.75339985;stroke-linecap:butt;stroke-linejoin:round;stroke-miterlimit:3.8636899;stroke-dasharray:none;stroke-opacity:1"
         id="path136" />
      <path
         d="m 208.35876,315.70763 c 8.774,0 13.231,-16.262 9.313,-24.648 -0.75,-1.602 -2.149,-3.207 -3.988,-3.207 -10.028,0 -7.465,20.125 -13.11,25.839 0.516,0.555 1.012,1.133 1.461,1.719 3.816,-4.519 1.922,-16.414 10.063,-16.414 1.878,0 3.296,1.66 4.054,3.277 2.02,4.329 -1.722,11.84 -5.816,11.84 -0.043,0 -0.629,-0.023 -0.617,-0.261 0.152,-2.762 2.3,-1.043 0.136,-5.743 -2.214,0.446 -4.558,4.036 -3.347,6.625 0.355,0.758 1.246,0.973 1.851,0.973"
         style="fill:#000000;fill-opacity:1;fill-rule:nonzero;stroke:none"
         id="path138" />
      <path
         d="m 208.35876,315.70763 c 8.774,0 13.231,-16.262 9.313,-24.648 -0.75,-1.602 -2.149,-3.207 -3.988,-3.207 -10.028,0 -7.465,20.125 -13.11,25.839 0.516,0.555 1.012,1.133 1.461,1.719 3.816,-4.519 1.922,-16.414 10.063,-16.414 1.878,0 3.296,1.66 4.054,3.277 2.02,4.329 -1.722,11.84 -5.816,11.84 -0.043,0 -0.629,-0.023 -0.617,-0.261 0.152,-2.762 2.3,-1.043 0.136,-5.743 -2.214,0.446 -4.558,4.036 -3.347,6.625 0.355,0.758 1.246,0.973 1.851,0.973 z"
         style="fill:none;stroke:#000000;stroke-width:9.75339985;stroke-linecap:butt;stroke-linejoin:round;stroke-miterlimit:3.8636899;stroke-dasharray:none;stroke-opacity:1"
         id="path140" />
      <path
         d="m 230.17576,315.88763 c 0.828,-0.078 2.066,-0.004 2.777,-0.223 0.133,-0.039 0.031,-0.207 0.055,-0.34 0.215,-1.23 0.554,-2.394 0.847,-3.582 1.145,-4.625 1.832,-9.375 3.145,-13.961 1.426,-4.992 2.914,-10.617 1.184,-16.883 -0.168,-0.613 -0.395,-1.234 -0.684,-1.859 -1.961,-4.191 -18.832,-9.019 -23.234,-9.019 -0.536,0 -1.114,0.152 -1.368,0.503 1.856,1.192 3.02,2.414 3.852,4.192 0.996,2.133 0.98,4.125 0.848,5.961 0.351,-0.203 13.312,0.117 13.785,0.117 1.902,0 3.539,1.863 4.304,3.496 1.403,3.004 1.164,6.07 0.922,8.629 -0.125,1.277 -0.293,2.543 -0.531,3.769 l -0.355,1.778 -0.047,0.195 -0.043,0.192 c 0.211,0 0.019,-0.375 0.027,-0.567 0.133,-3.098 0.078,-7.418 -1.57,-10.941 -0.766,-1.641 -2.016,-3.328 -3.938,-3.328 -8.426,0 -4.187,24.129 -10.937,29.863 0.371,0.625 0.707,1.266 0.984,1.894 3.996,-4.871 4.207,-18.304 10.086,-18.304 1.426,0 2.902,1.351 3.508,2.648 2.613,5.59 -1.727,12.102 -3.617,15.77"
         style="fill:#000000;fill-opacity:1;fill-rule:evenodd;stroke:none"
         id="path142" />
      <path
         d="m 230.17576,315.88763 c 0.828,-0.078 2.066,-0.004 2.777,-0.223 0.133,-0.039 0.031,-0.207 0.055,-0.34 0.215,-1.23 0.554,-2.394 0.847,-3.582 1.145,-4.625 1.832,-9.375 3.145,-13.961 1.426,-4.992 2.914,-10.617 1.184,-16.883 -0.168,-0.613 -0.395,-1.234 -0.684,-1.859 -1.961,-4.191 -18.832,-9.019 -23.234,-9.019 -0.536,0 -1.114,0.152 -1.368,0.503 1.856,1.192 3.02,2.414 3.852,4.192 0.996,2.133 0.98,4.125 0.848,5.961 0.351,-0.203 13.312,0.117 13.785,0.117 1.902,0 3.539,1.863 4.304,3.496 1.403,3.004 1.164,6.07 0.922,8.629 -0.125,1.277 -0.293,2.543 -0.531,3.769 l -0.355,1.778 -0.047,0.195 -0.043,0.192 c 0.211,0 0.019,-0.375 0.027,-0.567 0.133,-3.098 0.078,-7.418 -1.57,-10.941 -0.766,-1.641 -2.016,-3.328 -3.938,-3.328 -8.426,0 -4.187,24.129 -10.937,29.863 0.371,0.625 0.707,1.266 0.984,1.894 3.996,-4.871 4.207,-18.304 10.086,-18.304 1.426,0 2.902,1.351 3.508,2.648 2.613,5.59 -1.727,12.102 -3.617,15.77 z"
         style="fill:none;stroke:#000000;stroke-width:9.75339985;stroke-linecap:butt;stroke-linejoin:round;stroke-miterlimit:3.8636899;stroke-dasharray:none;stroke-opacity:1"
         id="path144" />
      <path
         d="m 126.41776,335.59863 c 5.793,0 2.414,-14.621 0.355,-19.032 -1.765,-3.773 -5.738,-9.218 -10.445,-9.218 -5.648,0 -5.48,6.39 -3.23,11.199 1.214,2.601 3.086,5.523 5.664,7.668 -0.661,-2.238 1.57,-3.77 0.668,-5.699 -0.618,-1.321 -1.891,-2.758 -2.555,-4.176 -1.07,-2.293 -0.66,-6.36 1.93,-6.36 2.316,0 4.375,2.899 5.218,4.704 1.731,3.703 6.055,19.488 1.219,19.488 -5.566,0 -15.156,-13.699 -17.164,-17.996 -3.586,-7.672 -0.988,-17.117 7.18,-17.117 5.519,0 10.062,5.359 12.254,10.05 1.304,2.793 2.015,5.575 2.297,8.196 l 1.07,0.199 c 0.238,-7.219 7.797,-19.168 4.582,-26.055 -4.121,-8.808 -16.438,-8.73 -23.469,-11.859 -1.476,3.492 -3.48,6.738 -6.301,9.215 6.274,2.132 21.688,5.711 25.039,12.882 1.411,3.012 0.45,8.008 -1.175,9.7 -0.278,-1.063 -0.661,-2.149 -1.172,-3.239 -2.867,-6.14 -9.012,-10.898 -15.348,-10.898 -8.82,0 -12.559,6.398 -8.406,15.281 2.488,5.328 15.211,23.067 21.789,23.067"
         style="fill:#000000;fill-opacity:1;fill-rule:nonzero;stroke:none"
         id="path146" />
      <path
         d="m 126.41776,335.59863 c 5.793,0 2.414,-14.621 0.355,-19.032 -1.765,-3.773 -5.738,-9.218 -10.445,-9.218 -5.648,0 -5.48,6.39 -3.23,11.199 1.214,2.601 3.086,5.523 5.664,7.668 -0.661,-2.238 1.57,-3.77 0.668,-5.699 -0.618,-1.321 -1.891,-2.758 -2.555,-4.176 -1.07,-2.293 -0.66,-6.36 1.93,-6.36 2.316,0 4.375,2.899 5.218,4.704 1.731,3.703 6.055,19.488 1.219,19.488 -5.566,0 -15.156,-13.699 -17.164,-17.996 -3.586,-7.672 -0.988,-17.117 7.18,-17.117 5.519,0 10.062,5.359 12.254,10.05 1.304,2.793 2.015,5.575 2.297,8.196 l 1.07,0.199 c 0.238,-7.219 7.797,-19.168 4.582,-26.055 -4.121,-8.808 -16.438,-8.73 -23.469,-11.859 -1.476,3.492 -3.48,6.738 -6.301,9.215 6.274,2.132 21.688,5.711 25.039,12.882 1.411,3.012 0.45,8.008 -1.175,9.7 -0.278,-1.063 -0.661,-2.149 -1.172,-3.239 -2.867,-6.14 -9.012,-10.898 -15.348,-10.898 -8.82,0 -12.559,6.398 -8.406,15.281 2.488,5.328 15.211,23.067 21.789,23.067 z"
         style="fill:none;stroke:#000000;stroke-width:0.81279999;stroke-linecap:butt;stroke-linejoin:miter;stroke-miterlimit:3.86370993;stroke-dasharray:none;stroke-opacity:1"
         id="path148" />
      <path
         d="m 141.48376,314.43463 c 0.352,-0.868 1.364,-5.793 2.133,-5.793 1.66,0 4.664,4.566 5.469,5.75 1.476,-0.977 0.656,-3.028 3.394,-3.028 1.243,0 1.864,2.696 3.157,2.742 0.043,-1.089 0.113,-2.078 -0.477,-3.335 -0.906,-1.942 -3.203,-4.575 -5.457,-4.575 -1.617,0 -3.867,1.969 -4.312,1.969 -0.481,0 -1.36,-0.23 -1.641,-0.828 -1.176,-2.516 1.965,-10.91 5.117,-10.91 1.684,0 3.692,1.246 5.453,2.015 -0.461,-3.023 -0.523,-5.574 0.082,-8.175 -1.605,-1.028 -3.484,-1.461 -4.992,-1.461 -7.742,0 -3.473,18.183 -10.609,22.058 l 2.683,3.571"
         style="fill:#000000;fill-opacity:1;fill-rule:nonzero;stroke:none"
         id="path150" />
      <path
         d="m 141.48376,314.43463 c 0.352,-0.868 1.364,-5.793 2.133,-5.793 1.66,0 4.664,4.566 5.469,5.75 1.476,-0.977 0.656,-3.028 3.394,-3.028 1.243,0 1.864,2.696 3.157,2.742 0.043,-1.089 0.113,-2.078 -0.477,-3.335 -0.906,-1.942 -3.203,-4.575 -5.457,-4.575 -1.617,0 -3.867,1.969 -4.312,1.969 -0.481,0 -1.36,-0.23 -1.641,-0.828 -1.176,-2.516 1.965,-10.91 5.117,-10.91 1.684,0 3.692,1.246 5.453,2.015 -0.461,-3.023 -0.523,-5.574 0.082,-8.175 -1.605,-1.028 -3.484,-1.461 -4.992,-1.461 -7.742,0 -3.473,18.183 -10.609,22.058 z"
         style="fill:none;stroke:#000000;stroke-width:0.81279999;stroke-linecap:butt;stroke-linejoin:miter;stroke-miterlimit:3.86370993;stroke-dasharray:none;stroke-opacity:1"
         id="path152" />
      <path
         d="m 171.23776,315.89163 c 5.852,0 8.16,-10.629 5.535,-16.246 -2.035,-4.356 -5.644,-7.516 -10.273,-7.516 -8.168,0 -7.145,11.246 -3.957,18.066 0.879,1.879 3.883,5.973 6.23,5.973 0.864,0 1.578,-0.277 2.465,-0.277 z m -0.179,-0.993 c -0.922,0 -1.731,-0.461 -2.161,-1.375 -0.894,-1.918 3.578,-3.859 2.934,-5.23 -0.402,-0.863 -1.941,-1.672 -2.719,-1.672 -3.875,0 -3.844,5.094 -1.531,8.414 -1.438,-0.926 -2.379,-2.336 -2.992,-3.648 -2.27,-4.86 -0.469,-11.543 4.719,-11.543 2.863,0 6.164,2.597 7.445,5.343 1.578,3.372 -2.457,9.711 -5.695,9.711"
         style="fill:#000000;fill-opacity:1;fill-rule:evenodd;stroke:none"
         id="path154" />
      <path
         d="m 171.23776,315.89163 c 5.852,0 8.16,-10.629 5.535,-16.246 -2.035,-4.356 -5.644,-7.516 -10.273,-7.516 -8.168,0 -7.145,11.246 -3.957,18.066 0.879,1.879 3.883,5.973 6.23,5.973 0.864,0 1.578,-0.277 2.465,-0.277 z"
         style="fill:none;stroke:#000000;stroke-width:0.81279999;stroke-linecap:butt;stroke-linejoin:miter;stroke-miterlimit:3.86370993;stroke-dasharray:none;stroke-opacity:1"
         id="path156" />
      <path
         d="m 171.05876,314.89863 c -0.922,0 -1.731,-0.461 -2.161,-1.375 -0.894,-1.918 3.578,-3.859 2.934,-5.23 -0.402,-0.863 -1.941,-1.672 -2.719,-1.672 -3.875,0 -3.844,5.094 -1.531,8.414 -1.438,-0.926 -2.379,-2.336 -2.992,-3.648 -2.27,-4.86 -0.469,-11.543 4.719,-11.543 2.863,0 6.164,2.597 7.445,5.343 1.578,3.372 -2.457,9.711 -5.695,9.711 z"
         style="fill:none;stroke:#000000;stroke-width:0.81279999;stroke-linecap:butt;stroke-linejoin:miter;stroke-miterlimit:3.86370993;stroke-dasharray:none;stroke-opacity:1"
         id="path158" />
      <path
         d="m 197.83176,298.39163 c -1.531,-3.27 -4.379,-5.067 -7.59,-5.067 -10.18,0 -12.199,9.375 -7.785,18.817 1.039,2.226 2.75,4.695 5.359,4.695 8.18,0 13.879,-10.176 10.016,-18.445 z m -8.125,17.257 c -0.75,0 -1.41,-0.273 -1.77,-1.043 -0.793,-1.695 3.516,-3.207 3.524,-4.957 -0.449,-0.539 -1.711,-1.14 -2.262,-1.14 -3.101,0 -5.441,4.246 -2.793,7.406 -1.074,-0.691 -1.715,-1.723 -2.168,-2.695 -2.687,-5.746 1.145,-11.555 6.723,-11.555 2.32,0 5.312,1.305 6.519,3.887 1.707,3.652 -4.371,10.097 -7.773,10.097"
         style="fill:#000000;fill-opacity:1;fill-rule:evenodd;stroke:none"
         id="path160" />
      <path
         d="m 197.83176,298.39163 c -1.531,-3.27 -4.379,-5.067 -7.59,-5.067 -10.18,0 -12.199,9.375 -7.785,18.817 1.039,2.226 2.75,4.695 5.359,4.695 8.18,0 13.879,-10.176 10.016,-18.445 z"
         style="fill:none;stroke:#000000;stroke-width:0.81279999;stroke-linecap:butt;stroke-linejoin:miter;stroke-miterlimit:3.86370993;stroke-dasharray:none;stroke-opacity:1"
         id="path162" />
      <path
         d="m 189.70676,315.64863 c -0.75,0 -1.41,-0.273 -1.77,-1.043 -0.793,-1.695 3.516,-3.207 3.524,-4.957 -0.449,-0.539 -1.711,-1.14 -2.262,-1.14 -3.101,0 -5.441,4.246 -2.793,7.406 -1.074,-0.691 -1.715,-1.723 -2.168,-2.695 -2.687,-5.746 1.145,-11.555 6.723,-11.555 2.32,0 5.312,1.305 6.519,3.887 1.707,3.652 -4.371,10.097 -7.773,10.097 z"
         style="fill:none;stroke:#000000;stroke-width:0.81279999;stroke-linecap:butt;stroke-linejoin:miter;stroke-miterlimit:3.86370993;stroke-dasharray:none;stroke-opacity:1"
         id="path164" />
      <path
         d="m 208.35876,315.70763 c 8.774,0 13.231,-16.262 9.313,-24.648 -0.75,-1.602 -2.149,-3.207 -3.988,-3.207 -10.028,0 -7.465,20.125 -13.11,25.839 0.516,0.555 1.012,1.133 1.461,1.719 3.816,-4.519 1.922,-16.414 10.063,-16.414 1.878,0 3.296,1.66 4.054,3.277 2.02,4.329 -1.722,11.84 -5.816,11.84 -0.043,0 -0.629,-0.023 -0.617,-0.261 0.152,-2.762 2.3,-1.043 0.136,-5.743 -2.214,0.446 -4.558,4.036 -3.347,6.625 0.355,0.758 1.246,0.973 1.851,0.973"
         style="fill:#000000;fill-opacity:1;fill-rule:nonzero;stroke:none"
         id="path166" />
      <path
         d="m 208.35876,315.70763 c 8.774,0 13.231,-16.262 9.313,-24.648 -0.75,-1.602 -2.149,-3.207 -3.988,-3.207 -10.028,0 -7.465,20.125 -13.11,25.839 0.516,0.555 1.012,1.133 1.461,1.719 3.816,-4.519 1.922,-16.414 10.063,-16.414 1.878,0 3.296,1.66 4.054,3.277 2.02,4.329 -1.722,11.84 -5.816,11.84 -0.043,0 -0.629,-0.023 -0.617,-0.261 0.152,-2.762 2.3,-1.043 0.136,-5.743 -2.214,0.446 -4.558,4.036 -3.347,6.625 0.355,0.758 1.246,0.973 1.851,0.973 z"
         style="fill:none;stroke:#000000;stroke-width:0.81279999;stroke-linecap:butt;stroke-linejoin:miter;stroke-miterlimit:3.86370993;stroke-dasharray:none;stroke-opacity:1"
         id="path168" />
      <path
         d="m 230.17576,315.88763 c 0.828,-0.078 2.066,-0.004 2.777,-0.223 0.133,-0.039 0.031,-0.207 0.055,-0.34 0.215,-1.23 0.554,-2.394 0.847,-3.582 1.145,-4.625 1.832,-9.375 3.145,-13.961 1.426,-4.992 2.914,-10.617 1.184,-16.883 -0.168,-0.613 -0.395,-1.234 -0.684,-1.859 -1.961,-4.191 -6.996,-8.18 -11.402,-8.18 -0.536,0 -1.114,0.153 -1.368,0.504 1.86,1.192 3.02,2.414 3.852,4.192 0.996,2.129 0.98,4.125 0.852,5.961 0.351,-0.207 1.476,-0.723 1.949,-0.723 1.902,0 3.539,1.863 4.304,3.496 1.403,3.004 1.164,6.07 0.922,8.629 -0.125,1.277 -0.293,2.543 -0.531,3.769 l -0.355,1.778 -0.047,0.195 -0.043,0.192 c 0.211,0 0.019,-0.375 0.027,-0.567 0.133,-3.098 0.078,-7.418 -1.57,-10.941 -0.766,-1.641 -2.016,-3.328 -3.938,-3.328 -8.426,0 -4.187,24.129 -10.937,29.863 0.371,0.625 0.707,1.266 0.984,1.894 3.996,-4.871 4.207,-18.304 10.086,-18.304 1.426,0 2.902,1.351 3.508,2.648 2.613,5.59 -1.727,12.102 -3.617,15.77"
         style="fill:#000000;fill-opacity:1;fill-rule:evenodd;stroke:none"
         id="path170" />
      <path
         d="m 230.17576,315.88763 c 0.828,-0.078 2.066,-0.004 2.777,-0.223 0.133,-0.039 0.031,-0.207 0.055,-0.34 0.215,-1.23 0.554,-2.394 0.847,-3.582 1.145,-4.625 1.832,-9.375 3.145,-13.961 1.426,-4.992 2.914,-10.617 1.184,-16.883 -0.168,-0.613 -0.395,-1.234 -0.684,-1.859 -1.961,-4.191 -6.996,-8.18 -11.402,-8.18 -0.536,0 -1.114,0.153 -1.368,0.504 1.86,1.192 3.02,2.414 3.852,4.192 0.996,2.129 0.98,4.125 0.852,5.961 0.351,-0.207 1.476,-0.723 1.949,-0.723 1.902,0 3.539,1.863 4.304,3.496 1.403,3.004 1.164,6.07 0.922,8.629 -0.125,1.277 -0.293,2.543 -0.531,3.769 l -0.355,1.778 -0.047,0.195 -0.043,0.192 c 0.211,0 0.019,-0.375 0.027,-0.567 0.133,-3.098 0.078,-7.418 -1.57,-10.941 -0.766,-1.641 -2.016,-3.328 -3.938,-3.328 -8.426,0 -4.187,24.129 -10.937,29.863 0.371,0.625 0.707,1.266 0.984,1.894 3.996,-4.871 4.207,-18.304 10.086,-18.304 1.426,0 2.902,1.351 3.508,2.648 2.613,5.59 -1.727,12.102 -3.617,15.77 z"
         style="fill:none;stroke:#000000;stroke-width:0.81279999;stroke-linecap:butt;stroke-linejoin:miter;stroke-miterlimit:3.86370993;stroke-dasharray:none;stroke-opacity:1"
         id="path172" />
      <path
         d="m 126.41776,335.59863 c 5.793,0 2.414,-14.621 0.355,-19.032 -1.765,-3.773 -5.738,-9.218 -10.445,-9.218 -5.648,0 -5.48,6.39 -3.23,11.199 1.214,2.601 3.086,5.523 5.664,7.668 -0.661,-2.238 1.57,-3.77 0.668,-5.699 -0.618,-1.321 -1.891,-2.758 -2.555,-4.176 -1.07,-2.293 -0.66,-6.36 1.93,-6.36 2.316,0 4.375,2.899 5.218,4.704 1.731,3.703 6.055,19.488 1.219,19.488 -5.566,0 -15.156,-13.699 -17.164,-17.996 -3.586,-7.672 -0.988,-17.117 7.18,-17.117 5.519,0 10.062,5.359 12.254,10.05 1.304,2.793 2.015,5.575 2.297,8.196 l 1.07,0.199 c 0.238,-7.219 7.797,-19.168 4.582,-26.055 -4.121,-8.808 -16.438,-8.73 -23.469,-11.859 -1.476,3.492 -3.48,6.738 -6.301,9.215 6.274,2.132 21.688,5.711 25.039,12.882 1.411,3.012 0.45,8.008 -1.175,9.7 -0.278,-1.063 -0.661,-2.149 -1.172,-3.239 -2.867,-6.14 -9.012,-10.898 -15.348,-10.898 -8.82,0 -12.559,6.398 -8.406,15.281 2.488,5.328 15.211,23.067 21.789,23.067"
         style="fill:#000000;fill-opacity:1;fill-rule:nonzero;stroke:none"
         id="path174" />
      <path
         d="m 126.41776,335.59863 c 5.793,0 2.414,-14.621 0.355,-19.032 -1.765,-3.773 -5.738,-9.218 -10.445,-9.218 -5.648,0 -5.48,6.39 -3.23,11.199 1.214,2.601 3.086,5.523 5.664,7.668 -0.661,-2.238 1.57,-3.77 0.668,-5.699 -0.618,-1.321 -1.891,-2.758 -2.555,-4.176 -1.07,-2.293 -0.66,-6.36 1.93,-6.36 2.316,0 4.375,2.899 5.218,4.704 1.731,3.703 6.055,19.488 1.219,19.488 -5.566,0 -15.156,-13.699 -17.164,-17.996 -3.586,-7.672 -0.988,-17.117 7.18,-17.117 5.519,0 10.062,5.359 12.254,10.05 1.304,2.793 2.015,5.575 2.297,8.196 l 1.07,0.199 c 0.238,-7.219 7.797,-19.168 4.582,-26.055 -4.121,-8.808 -16.438,-8.73 -23.469,-11.859 -1.476,3.492 -3.48,6.738 -6.301,9.215 6.274,2.132 21.688,5.711 25.039,12.882 1.411,3.012 0.45,8.008 -1.175,9.7 -0.278,-1.063 -0.661,-2.149 -1.172,-3.239 -2.867,-6.14 -9.012,-10.898 -15.348,-10.898 -8.82,0 -12.559,6.398 -8.406,15.281 2.488,5.328 15.211,23.067 21.789,23.067 z"
         style="fill:none;stroke:#000000;stroke-width:9.75339985;stroke-linecap:butt;stroke-linejoin:round;stroke-miterlimit:3.8636899;stroke-dasharray:none;stroke-opacity:1"
         id="path176" />
      <path
         d="m 141.48376,314.43463 c 0.352,-0.868 1.364,-5.793 2.133,-5.793 1.66,0 4.664,4.566 5.469,5.75 1.476,-0.977 0.656,-3.028 3.394,-3.028 1.243,0 1.864,2.696 3.157,2.742 0.043,-1.089 0.113,-2.078 -0.477,-3.335 -0.906,-1.942 -3.203,-4.575 -5.457,-4.575 -1.617,0 -3.867,1.969 -4.312,1.969 -0.481,0 -1.36,-0.23 -1.641,-0.828 -1.176,-2.516 1.965,-10.91 5.117,-10.91 1.684,0 3.692,1.246 5.453,2.015 -0.461,-3.023 -0.523,-5.574 0.082,-8.175 -1.605,-1.028 -3.484,-1.461 -4.992,-1.461 -7.742,0 -3.473,18.183 -10.609,22.058 l 2.683,3.571"
         style="fill:#000000;fill-opacity:1;fill-rule:nonzero;stroke:none"
         id="path178" />
      <path
         d="m 141.48376,314.43463 c 0.352,-0.868 1.364,-5.793 2.133,-5.793 1.66,0 4.664,4.566 5.469,5.75 1.476,-0.977 0.656,-3.028 3.394,-3.028 1.243,0 1.864,2.696 3.157,2.742 0.043,-1.089 0.113,-2.078 -0.477,-3.335 -0.906,-1.942 -3.203,-4.575 -5.457,-4.575 -1.617,0 -3.867,1.969 -4.312,1.969 -0.481,0 -1.36,-0.23 -1.641,-0.828 -1.176,-2.516 1.965,-10.91 5.117,-10.91 1.684,0 3.692,1.246 5.453,2.015 -0.461,-3.023 -0.523,-5.574 0.082,-8.175 -1.605,-1.028 -3.484,-1.461 -4.992,-1.461 -7.742,0 -3.473,18.183 -10.609,22.058 z"
         style="fill:none;stroke:#000000;stroke-width:9.75339985;stroke-linecap:butt;stroke-linejoin:round;stroke-miterlimit:3.8636899;stroke-dasharray:none;stroke-opacity:1"
         id="path180" />
      <path
         d="m 171.23776,315.89163 c 5.852,0 8.16,-10.629 5.535,-16.246 -2.035,-4.356 -5.644,-7.516 -10.273,-7.516 -8.168,0 -7.145,11.246 -3.957,18.066 0.879,1.879 3.883,5.973 6.23,5.973 0.864,0 1.578,-0.277 2.465,-0.277 z m -0.179,-0.993 c -0.922,0 -1.731,-0.461 -2.161,-1.375 -0.894,-1.918 3.578,-3.859 2.934,-5.23 -0.402,-0.863 -1.941,-1.672 -2.719,-1.672 -3.875,0 -3.844,5.094 -1.531,8.414 -1.438,-0.926 -2.379,-2.336 -2.992,-3.648 -2.27,-4.86 -0.469,-11.543 4.719,-11.543 2.863,0 6.164,2.597 7.445,5.343 1.578,3.372 -2.457,9.711 -5.695,9.711"
         style="fill:#000000;fill-opacity:1;fill-rule:evenodd;stroke:none"
         id="path182" />
      <path
         d="m 171.23776,315.89163 c 5.852,0 8.16,-10.629 5.535,-16.246 -2.035,-4.356 -5.644,-7.516 -10.273,-7.516 -8.168,0 -7.145,11.246 -3.957,18.066 0.879,1.879 3.883,5.973 6.23,5.973 0.864,0 1.578,-0.277 2.465,-0.277 z"
         style="fill:none;stroke:#000000;stroke-width:9.75339985;stroke-linecap:butt;stroke-linejoin:round;stroke-miterlimit:3.8636899;stroke-dasharray:none;stroke-opacity:1"
         id="path184" />
      <path
         d="m 171.05876,314.89863 c -0.922,0 -1.731,-0.461 -2.161,-1.375 -0.894,-1.918 3.578,-3.859 2.934,-5.23 -0.402,-0.863 -1.941,-1.672 -2.719,-1.672 -3.875,0 -3.844,5.094 -1.531,8.414 -1.438,-0.926 -2.379,-2.336 -2.992,-3.648 -2.27,-4.86 -0.469,-11.543 4.719,-11.543 2.863,0 6.164,2.597 7.445,5.343 1.578,3.372 -2.457,9.711 -5.695,9.711 z"
         style="fill:none;stroke:#000000;stroke-width:9.75339985;stroke-linecap:butt;stroke-linejoin:round;stroke-miterlimit:3.8636899;stroke-dasharray:none;stroke-opacity:1"
         id="path186" />
      <path
         d="m 197.83176,298.39163 c -1.531,-3.27 -4.379,-5.067 -7.59,-5.067 -10.18,0 -12.199,9.375 -7.785,18.817 1.039,2.226 2.75,4.695 5.359,4.695 8.18,0 13.879,-10.176 10.016,-18.445 z m -8.125,17.257 c -0.75,0 -1.41,-0.273 -1.77,-1.043 -0.793,-1.695 3.516,-3.207 3.524,-4.957 -0.449,-0.539 -1.711,-1.14 -2.262,-1.14 -3.101,0 -5.441,4.246 -2.793,7.406 -1.074,-0.691 -1.715,-1.723 -2.168,-2.695 -2.687,-5.746 1.145,-11.555 6.723,-11.555 2.32,0 5.312,1.305 6.519,3.887 1.707,3.652 -4.371,10.097 -7.773,10.097"
         style="fill:#000000;fill-opacity:1;fill-rule:evenodd;stroke:none"
         id="path188" />
      <path
         d="m 197.83176,298.39163 c -1.531,-3.27 -4.379,-5.067 -7.59,-5.067 -10.18,0 -12.199,9.375 -7.785,18.817 1.039,2.226 2.75,4.695 5.359,4.695 8.18,0 13.879,-10.176 10.016,-18.445 z"
         style="fill:none;stroke:#000000;stroke-width:9.75339985;stroke-linecap:butt;stroke-linejoin:round;stroke-miterlimit:3.8636899;stroke-dasharray:none;stroke-opacity:1"
         id="path190" />
      <path
         d="m 189.70676,315.64863 c -0.75,0 -1.41,-0.273 -1.77,-1.043 -0.793,-1.695 3.516,-3.207 3.524,-4.957 -0.449,-0.539 -1.711,-1.14 -2.262,-1.14 -3.101,0 -5.441,4.246 -2.793,7.406 -1.074,-0.691 -1.715,-1.723 -2.168,-2.695 -2.687,-5.746 1.145,-11.555 6.723,-11.555 2.32,0 5.312,1.305 6.519,3.887 1.707,3.652 -4.371,10.097 -7.773,10.097 z"
         style="fill:none;stroke:#000000;stroke-width:9.75339985;stroke-linecap:butt;stroke-linejoin:round;stroke-miterlimit:3.8636899;stroke-dasharray:none;stroke-opacity:1"
         id="path192" />
      <path
         d="m 208.35876,315.70763 c 8.774,0 13.231,-16.262 9.313,-24.648 -0.75,-1.602 -2.149,-3.207 -3.988,-3.207 -10.028,0 -7.465,20.125 -13.11,25.839 0.516,0.555 1.012,1.133 1.461,1.719 3.816,-4.519 1.922,-16.414 10.063,-16.414 1.878,0 3.296,1.66 4.054,3.277 2.02,4.329 -1.722,11.84 -5.816,11.84 -0.043,0 -0.629,-0.023 -0.617,-0.261 0.152,-2.762 2.3,-1.043 0.136,-5.743 -2.214,0.446 -4.558,4.036 -3.347,6.625 0.355,0.758 1.246,0.973 1.851,0.973"
         style="fill:#000000;fill-opacity:1;fill-rule:nonzero;stroke:none"
         id="path194" />
      <path
         d="m 208.35876,315.70763 c 8.774,0 13.231,-16.262 9.313,-24.648 -0.75,-1.602 -2.149,-3.207 -3.988,-3.207 -10.028,0 -7.465,20.125 -13.11,25.839 0.516,0.555 1.012,1.133 1.461,1.719 3.816,-4.519 1.922,-16.414 10.063,-16.414 1.878,0 3.296,1.66 4.054,3.277 2.02,4.329 -1.722,11.84 -5.816,11.84 -0.043,0 -0.629,-0.023 -0.617,-0.261 0.152,-2.762 2.3,-1.043 0.136,-5.743 -2.214,0.446 -4.558,4.036 -3.347,6.625 0.355,0.758 1.246,0.973 1.851,0.973 z"
         style="fill:none;stroke:#000000;stroke-width:9.75339985;stroke-linecap:butt;stroke-linejoin:round;stroke-miterlimit:3.8636899;stroke-dasharray:none;stroke-opacity:1"
         id="path196" />
      <path
         d="m 230.17576,315.88763 c 0.828,-0.078 2.066,-0.004 2.777,-0.223 0.133,-0.039 0.031,-0.207 0.055,-0.34 0.215,-1.23 0.554,-2.394 0.847,-3.582 1.145,-4.625 1.832,-9.375 3.145,-13.961 1.426,-4.992 2.914,-10.617 1.184,-16.883 -0.168,-0.613 -0.395,-1.234 -0.684,-1.859 -1.961,-4.191 -6.996,-8.18 -11.402,-8.18 -0.536,0 -1.114,0.153 -1.368,0.504 1.86,1.192 3.02,2.414 3.852,4.192 0.996,2.129 0.98,4.125 0.852,5.961 0.351,-0.207 1.476,-0.723 1.949,-0.723 1.902,0 3.539,1.863 4.304,3.496 1.403,3.004 1.164,6.07 0.922,8.629 -0.125,1.277 -0.293,2.543 -0.531,3.769 l -0.355,1.778 -0.047,0.195 -0.043,0.192 c 0.211,0 0.019,-0.375 0.027,-0.567 0.133,-3.098 0.078,-7.418 -1.57,-10.941 -0.766,-1.641 -2.016,-3.328 -3.938,-3.328 -8.426,0 -4.187,24.129 -10.937,29.863 0.371,0.625 0.707,1.266 0.984,1.894 3.996,-4.871 4.207,-18.304 10.086,-18.304 1.426,0 2.902,1.351 3.508,2.648 2.613,5.59 -1.727,12.102 -3.617,15.77"
         style="fill:#000000;fill-opacity:1;fill-rule:evenodd;stroke:none"
         id="path198" />
      <path
         d="m 230.17576,315.88763 c 0.828,-0.078 2.066,-0.004 2.777,-0.223 0.133,-0.039 0.031,-0.207 0.055,-0.34 0.215,-1.23 0.554,-2.394 0.847,-3.582 1.145,-4.625 1.832,-9.375 3.145,-13.961 1.426,-4.992 2.914,-10.617 1.184,-16.883 -0.168,-0.613 -0.395,-1.234 -0.684,-1.859 -1.961,-4.191 -6.996,-8.18 -11.402,-8.18 -0.536,0 -1.114,0.153 -1.368,0.504 1.86,1.192 3.02,2.414 3.852,4.192 0.996,2.129 0.98,4.125 0.852,5.961 0.351,-0.207 1.476,-0.723 1.949,-0.723 1.902,0 3.539,1.863 4.304,3.496 1.403,3.004 1.164,6.07 0.922,8.629 -0.125,1.277 -0.293,2.543 -0.531,3.769 l -0.355,1.778 -0.047,0.195 -0.043,0.192 c 0.211,0 0.019,-0.375 0.027,-0.567 0.133,-3.098 0.078,-7.418 -1.57,-10.941 -0.766,-1.641 -2.016,-3.328 -3.938,-3.328 -8.426,0 -4.187,24.129 -10.937,29.863 0.371,0.625 0.707,1.266 0.984,1.894 3.996,-4.871 4.207,-18.304 10.086,-18.304 1.426,0 2.902,1.351 3.508,2.648 2.613,5.59 -1.727,12.102 -3.617,15.77 z"
         style="fill:none;stroke:#000000;stroke-width:9.75339985;stroke-linecap:butt;stroke-linejoin:round;stroke-miterlimit:3.8636899;stroke-dasharray:none;stroke-opacity:1"
         id="path200" />
      <path
         d="m 126.41776,335.59863 c 5.793,0 2.414,-14.621 0.355,-19.032 -1.765,-3.773 -5.738,-9.218 -10.445,-9.218 -5.648,0 -5.48,6.39 -3.23,11.199 1.214,2.601 3.086,5.523 5.664,7.668 -0.661,-2.238 1.57,-3.77 0.668,-5.699 -0.618,-1.321 -1.891,-2.758 -2.555,-4.176 -1.07,-2.293 -0.66,-6.36 1.93,-6.36 2.316,0 4.375,2.899 5.218,4.704 1.731,3.703 6.055,19.488 1.219,19.488 -5.566,0 -15.156,-13.699 -17.164,-17.996 -3.586,-7.672 -0.988,-17.117 7.18,-17.117 5.519,0 10.062,5.359 12.254,10.05 1.304,2.793 2.015,5.575 2.297,8.196 l 1.07,0.199 c 0.238,-7.219 7.797,-19.168 4.582,-26.055 -4.121,-8.808 -16.438,-8.73 -23.469,-11.859 -1.476,3.492 -3.48,6.738 -6.301,9.215 6.274,2.132 21.688,5.711 25.039,12.882 1.411,3.012 0.45,8.008 -1.175,9.7 -0.278,-1.063 -0.661,-2.149 -1.172,-3.239 -2.867,-6.14 -9.012,-10.898 -15.348,-10.898 -8.82,0 -12.559,6.398 -8.406,15.281 2.488,5.328 15.211,23.067 21.789,23.067"
         style="fill:#ffffff;fill-opacity:1;fill-rule:nonzero;stroke:none"
         id="path202" />
      <path
         d="m 141.48376,314.43463 c 0.352,-0.868 1.364,-5.793 2.133,-5.793 1.66,0 4.664,4.566 5.469,5.75 1.476,-0.977 0.656,-3.028 3.394,-3.028 1.243,0 1.864,2.696 3.157,2.742 0.043,-1.089 0.113,-2.078 -0.477,-3.335 -0.906,-1.942 -3.203,-4.575 -5.457,-4.575 -1.617,0 -3.867,1.969 -4.312,1.969 -0.481,0 -1.36,-0.23 -1.641,-0.828 -1.176,-2.516 1.965,-10.91 5.117,-10.91 1.684,0 3.692,1.246 5.453,2.015 -0.461,-3.023 -0.523,-5.574 0.082,-8.175 -1.605,-1.028 -3.484,-1.461 -4.992,-1.461 -7.742,0 -3.473,18.183 -10.609,22.058 l 2.683,3.571"
         style="fill:#ffffff;fill-opacity:1;fill-rule:nonzero;stroke:none"
         id="path204" />
      <path
         d="m 171.23776,315.89163 c 5.852,0 8.16,-10.629 5.535,-16.246 -2.035,-4.356 -5.644,-7.516 -10.273,-7.516 -8.168,0 -7.145,11.246 -3.957,18.066 0.879,1.879 3.883,5.973 6.23,5.973 0.864,0 1.578,-0.277 2.465,-0.277 z m -0.179,-0.993 c -0.922,0 -1.731,-0.461 -2.161,-1.375 -0.894,-1.918 3.578,-3.859 2.934,-5.23 -0.402,-0.863 -1.941,-1.672 -2.719,-1.672 -3.875,0 -3.844,5.094 -1.531,8.414 -1.438,-0.926 -2.379,-2.336 -2.992,-3.648 -2.27,-4.86 -0.469,-11.543 4.719,-11.543 2.863,0 6.164,2.597 7.445,5.343 1.578,3.372 -2.457,9.711 -5.695,9.711"
         style="fill:#ffffff;fill-opacity:1;fill-rule:evenodd;stroke:none"
         id="path206" />
      <path
         d="m 197.83176,298.39163 c -1.531,-3.27 -4.379,-5.067 -7.59,-5.067 -10.18,0 -12.199,9.375 -7.785,18.817 1.039,2.226 2.75,4.695 5.359,4.695 8.18,0 13.879,-10.176 10.016,-18.445 z m -8.125,17.257 c -0.75,0 -1.41,-0.273 -1.77,-1.043 -0.793,-1.695 3.516,-3.207 3.524,-4.957 -0.449,-0.539 -1.711,-1.14 -2.262,-1.14 -3.101,0 -5.441,4.246 -2.793,7.406 -1.074,-0.691 -1.715,-1.723 -2.168,-2.695 -2.687,-5.746 1.145,-11.555 6.723,-11.555 2.32,0 5.312,1.305 6.519,3.887 1.707,3.652 -4.371,10.097 -7.773,10.097"
         style="fill:#ffffff;fill-opacity:1;fill-rule:evenodd;stroke:none"
         id="path208" />
      <path
         d="m 208.35876,315.70763 c 8.774,0 13.231,-16.262 9.313,-24.648 -0.75,-1.602 -2.149,-3.207 -3.988,-3.207 -10.028,0 -7.465,20.125 -13.11,25.839 0.516,0.555 1.012,1.133 1.461,1.719 3.816,-4.519 1.922,-16.414 10.063,-16.414 1.878,0 3.296,1.66 4.054,3.277 2.02,4.329 -1.722,11.84 -5.816,11.84 -0.043,0 -0.629,-0.023 -0.617,-0.261 0.152,-2.762 2.3,-1.043 0.136,-5.743 -2.214,0.446 -4.558,4.036 -3.347,6.625 0.355,0.758 1.246,0.973 1.851,0.973"
         style="fill:#ffffff;fill-opacity:1;fill-rule:nonzero;stroke:none"
         id="path210" />
      <path
         d="m 230.17576,315.88763 c 0.828,-0.078 2.066,-0.004 2.777,-0.223 0.133,-0.039 0.031,-0.207 0.055,-0.34 0.215,-1.23 0.554,-2.394 0.847,-3.582 1.145,-4.625 1.832,-9.375 3.145,-13.961 1.426,-4.992 2.914,-10.617 1.184,-16.883 -0.168,-0.613 -0.395,-1.234 -0.684,-1.859 -6.57,-12.742 -20.629,-9.309 -25.035,-9.309 -0.535,0 -1.114,0.153 -1.367,0.504 1.859,1.196 3.023,2.418 3.851,4.196 0.996,2.129 0.981,4.125 0.852,5.961 0.351,-0.207 1.48,-0.723 1.949,-0.723 1.906,0 12.523,-5.512 17.937,4.621 1.403,3.004 1.164,6.07 0.922,8.629 -0.125,1.277 -0.293,2.543 -0.531,3.769 l -0.355,1.778 -0.047,0.195 -0.043,0.192 c 0.211,0 0.019,-0.375 0.027,-0.567 0.133,-3.098 0.078,-7.418 -1.57,-10.941 -0.766,-1.641 -2.016,-3.328 -3.938,-3.328 -8.426,0 -4.187,24.129 -10.937,29.863 0.371,0.625 0.707,1.266 0.984,1.894 3.996,-4.871 4.207,-18.304 10.086,-18.304 1.426,0 2.902,1.351 3.508,2.648 2.613,5.59 -1.727,12.102 -3.617,15.77"
         style="fill:#ffffff;fill-opacity:1;fill-rule:evenodd;stroke:none"
         id="path212" />
      <path
         d="m 228.94876,255.32463 -58.008,22.707 -58.004,-22.703 22.907,36.192 -58.757997,22.16 72.163997,-0.34 21.691,36.398 21.696,-36.398 72.16,0.332 -58.754,-22.156 22.906,-36.192"
         style="fill:#619cbc;fill-opacity:1;fill-rule:nonzero;stroke:none"
         id="path216" />
      <path
         d="m 126.41776,335.59863 c 5.793,0 2.414,-14.621 0.355,-19.032 -1.765,-3.773 -5.738,-9.218 -10.445,-9.218 -5.648,0 -5.48,6.39 -3.23,11.199 1.214,2.601 3.086,5.523 5.664,7.668 -0.661,-2.238 1.57,-3.77 0.668,-5.699 -0.618,-1.321 -1.891,-2.758 -2.555,-4.176 -1.07,-2.293 -0.66,-6.36 1.93,-6.36 2.316,0 4.375,2.899 5.218,4.704 1.731,3.703 6.055,19.488 1.219,19.488 -5.566,0 -15.156,-13.699 -17.164,-17.996 -3.586,-7.672 -0.988,-17.117 7.18,-17.117 5.519,0 10.062,5.359 12.254,10.05 1.304,2.793 2.015,5.575 2.297,8.196 l 1.07,0.199 c 0.238,-7.219 7.797,-19.168 4.582,-26.055 -4.121,-8.808 -16.438,-8.73 -23.469,-11.859 -1.476,3.492 -3.48,6.738 -6.301,9.215 6.274,2.132 21.688,5.711 25.039,12.882 1.411,3.012 0.45,8.008 -1.175,9.7 -0.278,-1.063 -0.661,-2.149 -1.172,-3.239 -2.867,-6.14 -9.012,-10.898 -15.348,-10.898 -8.82,0 -12.559,6.398 -8.406,15.281 2.488,5.328 15.211,23.067 21.789,23.067"
         style="fill:#000000;fill-opacity:1;fill-rule:nonzero;stroke:none"
         id="path218" />
      <path
         d="m 126.41776,335.59863 c 5.793,0 2.414,-14.621 0.355,-19.032 -1.765,-3.773 -5.738,-9.218 -10.445,-9.218 -5.648,0 -5.48,6.39 -3.23,11.199 1.214,2.601 3.086,5.523 5.664,7.668 -0.661,-2.238 1.57,-3.77 0.668,-5.699 -0.618,-1.321 -1.891,-2.758 -2.555,-4.176 -1.07,-2.293 -0.66,-6.36 1.93,-6.36 2.316,0 4.375,2.899 5.218,4.704 1.731,3.703 6.055,19.488 1.219,19.488 -5.566,0 -15.156,-13.699 -17.164,-17.996 -3.586,-7.672 -0.988,-17.117 7.18,-17.117 5.519,0 10.062,5.359 12.254,10.05 1.304,2.793 2.015,5.575 2.297,8.196 l 1.07,0.199 c 0.238,-7.219 7.797,-19.168 4.582,-26.055 -4.121,-8.808 -16.438,-8.73 -23.469,-11.859 -1.476,3.492 -3.48,6.738 -6.301,9.215 6.274,2.132 21.688,5.711 25.039,12.882 1.411,3.012 0.45,8.008 -1.175,9.7 -0.278,-1.063 -0.661,-2.149 -1.172,-3.239 -2.867,-6.14 -9.012,-10.898 -15.348,-10.898 -8.82,0 -12.559,6.398 -8.406,15.281 2.488,5.328 15.211,23.067 21.789,23.067 z"
         style="fill:none;stroke:#000000;stroke-width:9.75339985;stroke-linecap:butt;stroke-linejoin:round;stroke-miterlimit:3.8636899;stroke-dasharray:none;stroke-opacity:1"
         id="path220" />
      <path
         d="m 141.48376,314.43463 c 0.352,-0.868 1.364,-5.793 2.133,-5.793 1.66,0 4.664,4.566 5.469,5.75 1.476,-0.977 0.656,-3.028 3.394,-3.028 1.243,0 1.864,2.696 3.157,2.742 0.043,-1.089 0.113,-2.078 -0.477,-3.335 -0.906,-1.942 -3.203,-4.575 -5.457,-4.575 -1.617,0 -3.867,1.969 -4.312,1.969 -0.481,0 -1.36,-0.23 -1.641,-0.828 -1.176,-2.516 1.965,-10.91 5.117,-10.91 1.684,0 3.692,1.246 5.453,2.015 -0.461,-3.023 -0.523,-5.574 0.082,-8.175 -1.605,-1.028 -3.484,-1.461 -4.992,-1.461 -7.742,0 -3.473,18.183 -10.609,22.058 l 2.683,3.571"
         style="fill:#000000;fill-opacity:1;fill-rule:nonzero;stroke:none"
         id="path222" />
      <path
         d="m 141.48376,314.43463 c 0.352,-0.868 1.364,-5.793 2.133,-5.793 1.66,0 4.664,4.566 5.469,5.75 1.476,-0.977 0.656,-3.028 3.394,-3.028 1.243,0 1.864,2.696 3.157,2.742 0.043,-1.089 0.113,-2.078 -0.477,-3.335 -0.906,-1.942 -3.203,-4.575 -5.457,-4.575 -1.617,0 -3.867,1.969 -4.312,1.969 -0.481,0 -1.36,-0.23 -1.641,-0.828 -1.176,-2.516 1.965,-10.91 5.117,-10.91 1.684,0 3.692,1.246 5.453,2.015 -0.461,-3.023 -0.523,-5.574 0.082,-8.175 -1.605,-1.028 -3.484,-1.461 -4.992,-1.461 -7.742,0 -3.473,18.183 -10.609,22.058 z"
         style="fill:none;stroke:#000000;stroke-width:9.75339985;stroke-linecap:butt;stroke-linejoin:round;stroke-miterlimit:3.8636899;stroke-dasharray:none;stroke-opacity:1"
         id="path224" />
      <path
         d="m 171.23776,315.89163 c 5.852,0 8.16,-10.629 5.535,-16.246 -2.035,-4.356 -5.644,-7.516 -10.273,-7.516 -8.168,0 -7.145,11.246 -3.957,18.066 0.879,1.879 3.883,5.973 6.23,5.973 0.864,0 1.578,-0.277 2.465,-0.277 z m -0.179,-0.993 c -0.922,0 -1.731,-0.461 -2.161,-1.375 -0.894,-1.918 3.578,-3.859 2.934,-5.23 -0.402,-0.863 -1.941,-1.672 -2.719,-1.672 -3.875,0 -3.844,5.094 -1.531,8.414 -1.438,-0.926 -2.379,-2.336 -2.992,-3.648 -2.27,-4.86 -0.469,-11.543 4.719,-11.543 2.863,0 6.164,2.597 7.445,5.343 1.578,3.372 -2.457,9.711 -5.695,9.711"
         style="fill:#000000;fill-opacity:1;fill-rule:evenodd;stroke:none"
         id="path226" />
      <path
         d="m 171.23776,315.89163 c 5.852,0 8.16,-10.629 5.535,-16.246 -2.035,-4.356 -5.644,-7.516 -10.273,-7.516 -8.168,0 -7.145,11.246 -3.957,18.066 0.879,1.879 3.883,5.973 6.23,5.973 0.864,0 1.578,-0.277 2.465,-0.277 z"
         style="fill:none;stroke:#000000;stroke-width:9.75339985;stroke-linecap:butt;stroke-linejoin:round;stroke-miterlimit:3.8636899;stroke-dasharray:none;stroke-opacity:1"
         id="path228" />
      <path
         d="m 171.05876,314.89863 c -0.922,0 -1.731,-0.461 -2.161,-1.375 -0.894,-1.918 3.578,-3.859 2.934,-5.23 -0.402,-0.863 -1.941,-1.672 -2.719,-1.672 -3.875,0 -3.844,5.094 -1.531,8.414 -1.438,-0.926 -2.379,-2.336 -2.992,-3.648 -2.27,-4.86 -0.469,-11.543 4.719,-11.543 2.863,0 6.164,2.597 7.445,5.343 1.578,3.372 -2.457,9.711 -5.695,9.711 z"
         style="fill:none;stroke:#000000;stroke-width:9.75339985;stroke-linecap:butt;stroke-linejoin:round;stroke-miterlimit:3.8636899;stroke-dasharray:none;stroke-opacity:1"
         id="path230" />
      <path
         d="m 197.83176,298.39163 c -1.531,-3.27 -4.379,-5.067 -7.59,-5.067 -10.18,0 -12.199,9.375 -7.785,18.817 1.039,2.226 2.75,4.695 5.359,4.695 8.18,0 13.879,-10.176 10.016,-18.445 z m -8.125,17.257 c -0.75,0 -1.41,-0.273 -1.77,-1.043 -0.793,-1.695 3.516,-3.207 3.524,-4.957 -0.449,-0.539 -1.711,-1.14 -2.262,-1.14 -3.101,0 -5.441,4.246 -2.793,7.406 -1.074,-0.691 -1.715,-1.723 -2.168,-2.695 -2.687,-5.746 1.145,-11.555 6.723,-11.555 2.32,0 5.312,1.305 6.519,3.887 1.707,3.652 -4.371,10.097 -7.773,10.097"
         style="fill:#000000;fill-opacity:1;fill-rule:evenodd;stroke:none"
         id="path232" />
      <path
         d="m 197.83176,298.39163 c -1.531,-3.27 -4.379,-5.067 -7.59,-5.067 -10.18,0 -12.199,9.375 -7.785,18.817 1.039,2.226 2.75,4.695 5.359,4.695 8.18,0 13.879,-10.176 10.016,-18.445 z"
         style="fill:none;stroke:#000000;stroke-width:9.75339985;stroke-linecap:butt;stroke-linejoin:round;stroke-miterlimit:3.8636899;stroke-dasharray:none;stroke-opacity:1"
         id="path234" />
      <path
         d="m 189.70676,315.64863 c -0.75,0 -1.41,-0.273 -1.77,-1.043 -0.793,-1.695 3.516,-3.207 3.524,-4.957 -0.449,-0.539 -1.711,-1.14 -2.262,-1.14 -3.101,0 -5.441,4.246 -2.793,7.406 -1.074,-0.691 -1.715,-1.723 -2.168,-2.695 -2.687,-5.746 1.145,-11.555 6.723,-11.555 2.32,0 5.312,1.305 6.519,3.887 1.707,3.652 -4.371,10.097 -7.773,10.097 z"
         style="fill:none;stroke:#000000;stroke-width:9.75339985;stroke-linecap:butt;stroke-linejoin:round;stroke-miterlimit:3.8636899;stroke-dasharray:none;stroke-opacity:1"
         id="path236" />
      <path
         d="m 208.35876,315.70763 c 8.774,0 13.231,-16.262 9.313,-24.648 -0.75,-1.602 -2.149,-3.207 -3.988,-3.207 -10.028,0 -7.465,20.125 -13.11,25.839 0.516,0.555 1.012,1.133 1.461,1.719 3.816,-4.519 1.922,-16.414 10.063,-16.414 1.878,0 3.296,1.66 4.054,3.277 2.02,4.329 -1.722,11.84 -5.816,11.84 -0.043,0 -0.629,-0.023 -0.617,-0.261 0.152,-2.762 2.3,-1.043 0.136,-5.743 -2.214,0.446 -4.558,4.036 -3.347,6.625 0.355,0.758 1.246,0.973 1.851,0.973"
         style="fill:#000000;fill-opacity:1;fill-rule:nonzero;stroke:none"
         id="path238" />
      <path
         d="m 208.35876,315.70763 c 8.774,0 13.231,-16.262 9.313,-24.648 -0.75,-1.602 -2.149,-3.207 -3.988,-3.207 -10.028,0 -7.465,20.125 -13.11,25.839 0.516,0.555 1.012,1.133 1.461,1.719 3.816,-4.519 1.922,-16.414 10.063,-16.414 1.878,0 3.296,1.66 4.054,3.277 2.02,4.329 -1.722,11.84 -5.816,11.84 -0.043,0 -0.629,-0.023 -0.617,-0.261 0.152,-2.762 2.3,-1.043 0.136,-5.743 -2.214,0.446 -4.558,4.036 -3.347,6.625 0.355,0.758 1.246,0.973 1.851,0.973 z"
         style="fill:none;stroke:#000000;stroke-width:9.75339985;stroke-linecap:butt;stroke-linejoin:round;stroke-miterlimit:3.8636899;stroke-dasharray:none;stroke-opacity:1"
         id="path240" />
      <path
         d="m 230.17576,315.88763 c 0.828,-0.078 2.066,-0.004 2.777,-0.223 0.133,-0.039 0.031,-0.207 0.055,-0.34 0.215,-1.23 0.554,-2.394 0.847,-3.582 1.145,-4.625 1.832,-9.375 3.145,-13.961 1.426,-4.992 2.914,-10.617 1.184,-16.883 -0.168,-0.613 -0.395,-1.234 -0.684,-1.859 -1.961,-4.191 -18.832,-9.019 -23.234,-9.019 -0.536,0 -1.114,0.152 -1.368,0.503 1.856,1.192 3.02,2.414 3.852,4.192 0.996,2.133 0.98,4.125 0.848,5.961 0.351,-0.203 13.312,0.117 13.785,0.117 1.902,0 3.539,1.863 4.304,3.496 1.403,3.004 1.164,6.07 0.922,8.629 -0.125,1.277 -0.293,2.543 -0.531,3.769 l -0.355,1.778 -0.047,0.195 -0.043,0.192 c 0.211,0 0.019,-0.375 0.027,-0.567 0.133,-3.098 0.078,-7.418 -1.57,-10.941 -0.766,-1.641 -2.016,-3.328 -3.938,-3.328 -8.426,0 -4.187,24.129 -10.937,29.863 0.371,0.625 0.707,1.266 0.984,1.894 3.996,-4.871 4.207,-18.304 10.086,-18.304 1.426,0 2.902,1.351 3.508,2.648 2.613,5.59 -1.727,12.102 -3.617,15.77"
         style="fill:#000000;fill-opacity:1;fill-rule:evenodd;stroke:none"
         id="path242" />
      <path
         d="m 230.17576,315.88763 c 0.828,-0.078 2.066,-0.004 2.777,-0.223 0.133,-0.039 0.031,-0.207 0.055,-0.34 0.215,-1.23 0.554,-2.394 0.847,-3.582 1.145,-4.625 1.832,-9.375 3.145,-13.961 1.426,-4.992 2.914,-10.617 1.184,-16.883 -0.168,-0.613 -0.395,-1.234 -0.684,-1.859 -1.961,-4.191 -18.832,-9.019 -23.234,-9.019 -0.536,0 -1.114,0.152 -1.368,0.503 1.856,1.192 3.02,2.414 3.852,4.192 0.996,2.133 0.98,4.125 0.848,5.961 0.351,-0.203 13.312,0.117 13.785,0.117 1.902,0 3.539,1.863 4.304,3.496 1.403,3.004 1.164,6.07 0.922,8.629 -0.125,1.277 -0.293,2.543 -0.531,3.769 l -0.355,1.778 -0.047,0.195 -0.043,0.192 c 0.211,0 0.019,-0.375 0.027,-0.567 0.133,-3.098 0.078,-7.418 -1.57,-10.941 -0.766,-1.641 -2.016,-3.328 -3.938,-3.328 -8.426,0 -4.187,24.129 -10.937,29.863 0.371,0.625 0.707,1.266 0.984,1.894 3.996,-4.871 4.207,-18.304 10.086,-18.304 1.426,0 2.902,1.351 3.508,2.648 2.613,5.59 -1.727,12.102 -3.617,15.77 z"
         style="fill:none;stroke:#000000;stroke-width:9.75339985;stroke-linecap:butt;stroke-linejoin:round;stroke-miterlimit:3.8636899;stroke-dasharray:none;stroke-opacity:1"
         id="path244" />
      <path
         d="m 126.41776,335.59863 c 5.793,0 2.414,-14.621 0.355,-19.032 -1.765,-3.773 -5.738,-9.218 -10.445,-9.218 -5.648,0 -5.48,6.39 -3.23,11.199 1.214,2.601 3.086,5.523 5.664,7.668 -0.661,-2.238 1.57,-3.77 0.668,-5.699 -0.618,-1.321 -1.891,-2.758 -2.555,-4.176 -1.07,-2.293 -0.66,-6.36 1.93,-6.36 2.316,0 4.375,2.899 5.218,4.704 1.731,3.703 6.055,19.488 1.219,19.488 -5.566,0 -15.156,-13.699 -17.164,-17.996 -3.586,-7.672 -0.988,-17.117 7.18,-17.117 5.519,0 10.062,5.359 12.254,10.05 1.304,2.793 2.015,5.575 2.297,8.196 l 1.07,0.199 c 0.238,-7.219 7.797,-19.168 4.582,-26.055 -4.121,-8.808 -16.438,-8.73 -23.469,-11.859 -1.476,3.492 -3.48,6.738 -6.301,9.215 6.274,2.132 21.688,5.711 25.039,12.882 1.411,3.012 0.45,8.008 -1.175,9.7 -0.278,-1.063 -0.661,-2.149 -1.172,-3.239 -2.867,-6.14 -9.012,-10.898 -15.348,-10.898 -8.82,0 -12.559,6.398 -8.406,15.281 2.488,5.328 15.211,23.067 21.789,23.067"
         style="fill:#000000;fill-opacity:1;fill-rule:nonzero;stroke:none"
         id="path246" />
      <path
         d="m 126.41776,335.59863 c 5.793,0 2.414,-14.621 0.355,-19.032 -1.765,-3.773 -5.738,-9.218 -10.445,-9.218 -5.648,0 -5.48,6.39 -3.23,11.199 1.214,2.601 3.086,5.523 5.664,7.668 -0.661,-2.238 1.57,-3.77 0.668,-5.699 -0.618,-1.321 -1.891,-2.758 -2.555,-4.176 -1.07,-2.293 -0.66,-6.36 1.93,-6.36 2.316,0 4.375,2.899 5.218,4.704 1.731,3.703 6.055,19.488 1.219,19.488 -5.566,0 -15.156,-13.699 -17.164,-17.996 -3.586,-7.672 -0.988,-17.117 7.18,-17.117 5.519,0 10.062,5.359 12.254,10.05 1.304,2.793 2.015,5.575 2.297,8.196 l 1.07,0.199 c 0.238,-7.219 7.797,-19.168 4.582,-26.055 -4.121,-8.808 -16.438,-8.73 -23.469,-11.859 -1.476,3.492 -3.48,6.738 -6.301,9.215 6.274,2.132 21.688,5.711 25.039,12.882 1.411,3.012 0.45,8.008 -1.175,9.7 -0.278,-1.063 -0.661,-2.149 -1.172,-3.239 -2.867,-6.14 -9.012,-10.898 -15.348,-10.898 -8.82,0 -12.559,6.398 -8.406,15.281 2.488,5.328 15.211,23.067 21.789,23.067 z"
         style="fill:none;stroke:#000000;stroke-width:0.81279999;stroke-linecap:butt;stroke-linejoin:miter;stroke-miterlimit:3.86370993;stroke-dasharray:none;stroke-opacity:1"
         id="path248" />
      <path
         d="m 141.48376,314.43463 c 0.352,-0.868 1.364,-5.793 2.133,-5.793 1.66,0 4.664,4.566 5.469,5.75 1.476,-0.977 0.656,-3.028 3.394,-3.028 1.243,0 1.864,2.696 3.157,2.742 0.043,-1.089 0.113,-2.078 -0.477,-3.335 -0.906,-1.942 -3.203,-4.575 -5.457,-4.575 -1.617,0 -3.867,1.969 -4.312,1.969 -0.481,0 -1.36,-0.23 -1.641,-0.828 -1.176,-2.516 1.965,-10.91 5.117,-10.91 1.684,0 3.692,1.246 5.453,2.015 -0.461,-3.023 -0.523,-5.574 0.082,-8.175 -1.605,-1.028 -3.484,-1.461 -4.992,-1.461 -7.742,0 -3.473,18.183 -10.609,22.058 l 2.683,3.571"
         style="fill:#000000;fill-opacity:1;fill-rule:nonzero;stroke:none"
         id="path250" />
      <path
         d="m 141.48376,314.43463 c 0.352,-0.868 1.364,-5.793 2.133,-5.793 1.66,0 4.664,4.566 5.469,5.75 1.476,-0.977 0.656,-3.028 3.394,-3.028 1.243,0 1.864,2.696 3.157,2.742 0.043,-1.089 0.113,-2.078 -0.477,-3.335 -0.906,-1.942 -3.203,-4.575 -5.457,-4.575 -1.617,0 -3.867,1.969 -4.312,1.969 -0.481,0 -1.36,-0.23 -1.641,-0.828 -1.176,-2.516 1.965,-10.91 5.117,-10.91 1.684,0 3.692,1.246 5.453,2.015 -0.461,-3.023 -0.523,-5.574 0.082,-8.175 -1.605,-1.028 -3.484,-1.461 -4.992,-1.461 -7.742,0 -3.473,18.183 -10.609,22.058 z"
         style="fill:none;stroke:#000000;stroke-width:0.81279999;stroke-linecap:butt;stroke-linejoin:miter;stroke-miterlimit:3.86370993;stroke-dasharray:none;stroke-opacity:1"
         id="path252" />
      <path
         d="m 171.23776,315.89163 c 5.852,0 8.16,-10.629 5.535,-16.246 -2.035,-4.356 -5.644,-7.516 -10.273,-7.516 -8.168,0 -7.145,11.246 -3.957,18.066 0.879,1.879 3.883,5.973 6.23,5.973 0.864,0 1.578,-0.277 2.465,-0.277 z m -0.179,-0.993 c -0.922,0 -1.731,-0.461 -2.161,-1.375 -0.894,-1.918 3.578,-3.859 2.934,-5.23 -0.402,-0.863 -1.941,-1.672 -2.719,-1.672 -3.875,0 -3.844,5.094 -1.531,8.414 -1.438,-0.926 -2.379,-2.336 -2.992,-3.648 -2.27,-4.86 -0.469,-11.543 4.719,-11.543 2.863,0 6.164,2.597 7.445,5.343 1.578,3.372 -2.457,9.711 -5.695,9.711"
         style="fill:#000000;fill-opacity:1;fill-rule:evenodd;stroke:none"
         id="path254" />
      <path
         d="m 171.23776,315.89163 c 5.852,0 8.16,-10.629 5.535,-16.246 -2.035,-4.356 -5.644,-7.516 -10.273,-7.516 -8.168,0 -7.145,11.246 -3.957,18.066 0.879,1.879 3.883,5.973 6.23,5.973 0.864,0 1.578,-0.277 2.465,-0.277 z"
         style="fill:none;stroke:#000000;stroke-width:0.81279999;stroke-linecap:butt;stroke-linejoin:miter;stroke-miterlimit:3.86370993;stroke-dasharray:none;stroke-opacity:1"
         id="path256" />
      <path
         d="m 171.05876,314.89863 c -0.922,0 -1.731,-0.461 -2.161,-1.375 -0.894,-1.918 3.578,-3.859 2.934,-5.23 -0.402,-0.863 -1.941,-1.672 -2.719,-1.672 -3.875,0 -3.844,5.094 -1.531,8.414 -1.438,-0.926 -2.379,-2.336 -2.992,-3.648 -2.27,-4.86 -0.469,-11.543 4.719,-11.543 2.863,0 6.164,2.597 7.445,5.343 1.578,3.372 -2.457,9.711 -5.695,9.711 z"
         style="fill:none;stroke:#000000;stroke-width:0.81279999;stroke-linecap:butt;stroke-linejoin:miter;stroke-miterlimit:3.86370993;stroke-dasharray:none;stroke-opacity:1"
         id="path258" />
      <path
         d="m 197.83176,298.39163 c -1.531,-3.27 -4.379,-5.067 -7.59,-5.067 -10.18,0 -12.199,9.375 -7.785,18.817 1.039,2.226 2.75,4.695 5.359,4.695 8.18,0 13.879,-10.176 10.016,-18.445 z m -8.125,17.257 c -0.75,0 -1.41,-0.273 -1.77,-1.043 -0.793,-1.695 3.516,-3.207 3.524,-4.957 -0.449,-0.539 -1.711,-1.14 -2.262,-1.14 -3.101,0 -5.441,4.246 -2.793,7.406 -1.074,-0.691 -1.715,-1.723 -2.168,-2.695 -2.687,-5.746 1.145,-11.555 6.723,-11.555 2.32,0 5.312,1.305 6.519,3.887 1.707,3.652 -4.371,10.097 -7.773,10.097"
         style="fill:#000000;fill-opacity:1;fill-rule:evenodd;stroke:none"
         id="path260" />
      <path
         d="m 197.83176,298.39163 c -1.531,-3.27 -4.379,-5.067 -7.59,-5.067 -10.18,0 -12.199,9.375 -7.785,18.817 1.039,2.226 2.75,4.695 5.359,4.695 8.18,0 13.879,-10.176 10.016,-18.445 z"
         style="fill:none;stroke:#000000;stroke-width:0.81279999;stroke-linecap:butt;stroke-linejoin:miter;stroke-miterlimit:3.86370993;stroke-dasharray:none;stroke-opacity:1"
         id="path262" />
      <path
         d="m 189.70676,315.64863 c -0.75,0 -1.41,-0.273 -1.77,-1.043 -0.793,-1.695 3.516,-3.207 3.524,-4.957 -0.449,-0.539 -1.711,-1.14 -2.262,-1.14 -3.101,0 -5.441,4.246 -2.793,7.406 -1.074,-0.691 -1.715,-1.723 -2.168,-2.695 -2.687,-5.746 1.145,-11.555 6.723,-11.555 2.32,0 5.312,1.305 6.519,3.887 1.707,3.652 -4.371,10.097 -7.773,10.097 z"
         style="fill:none;stroke:#000000;stroke-width:0.81279999;stroke-linecap:butt;stroke-linejoin:miter;stroke-miterlimit:3.86370993;stroke-dasharray:none;stroke-opacity:1"
         id="path264" />
      <path
         d="m 208.35876,315.70763 c 8.774,0 13.231,-16.262 9.313,-24.648 -0.75,-1.602 -2.149,-3.207 -3.988,-3.207 -10.028,0 -7.465,20.125 -13.11,25.839 0.516,0.555 1.012,1.133 1.461,1.719 3.816,-4.519 1.922,-16.414 10.063,-16.414 1.878,0 3.296,1.66 4.054,3.277 2.02,4.329 -1.722,11.84 -5.816,11.84 -0.043,0 -0.629,-0.023 -0.617,-0.261 0.152,-2.762 2.3,-1.043 0.136,-5.743 -2.214,0.446 -4.558,4.036 -3.347,6.625 0.355,0.758 1.246,0.973 1.851,0.973"
         style="fill:#000000;fill-opacity:1;fill-rule:nonzero;stroke:none"
         id="path266" />
      <path
         d="m 208.35876,315.70763 c 8.774,0 13.231,-16.262 9.313,-24.648 -0.75,-1.602 -2.149,-3.207 -3.988,-3.207 -10.028,0 -7.465,20.125 -13.11,25.839 0.516,0.555 1.012,1.133 1.461,1.719 3.816,-4.519 1.922,-16.414 10.063,-16.414 1.878,0 3.296,1.66 4.054,3.277 2.02,4.329 -1.722,11.84 -5.816,11.84 -0.043,0 -0.629,-0.023 -0.617,-0.261 0.152,-2.762 2.3,-1.043 0.136,-5.743 -2.214,0.446 -4.558,4.036 -3.347,6.625 0.355,0.758 1.246,0.973 1.851,0.973 z"
         style="fill:none;stroke:#000000;stroke-width:0.81279999;stroke-linecap:butt;stroke-linejoin:miter;stroke-miterlimit:3.86370993;stroke-dasharray:none;stroke-opacity:1"
         id="path268" />
      <path
         d="m 230.17576,315.88763 c 0.828,-0.078 2.066,-0.004 2.777,-0.223 0.133,-0.039 0.031,-0.207 0.055,-0.34 0.215,-1.23 0.554,-2.394 0.847,-3.582 1.145,-4.625 1.832,-9.375 3.145,-13.961 1.426,-4.992 2.914,-10.617 1.184,-16.883 -0.168,-0.613 -0.395,-1.234 -0.684,-1.859 -1.961,-4.191 -6.996,-8.18 -11.402,-8.18 -0.536,0 -1.114,0.153 -1.368,0.504 1.86,1.192 3.02,2.414 3.852,4.192 0.996,2.129 0.98,4.125 0.852,5.961 0.351,-0.207 1.476,-0.723 1.949,-0.723 1.902,0 3.539,1.863 4.304,3.496 1.403,3.004 1.164,6.07 0.922,8.629 -0.125,1.277 -0.293,2.543 -0.531,3.769 l -0.355,1.778 -0.047,0.195 -0.043,0.192 c 0.211,0 0.019,-0.375 0.027,-0.567 0.133,-3.098 0.078,-7.418 -1.57,-10.941 -0.766,-1.641 -2.016,-3.328 -3.938,-3.328 -8.426,0 -4.187,24.129 -10.937,29.863 0.371,0.625 0.707,1.266 0.984,1.894 3.996,-4.871 4.207,-18.304 10.086,-18.304 1.426,0 2.902,1.351 3.508,2.648 2.613,5.59 -1.727,12.102 -3.617,15.77"
         style="fill:#000000;fill-opacity:1;fill-rule:evenodd;stroke:none"
         id="path270" />
      <path
         d="m 230.17576,315.88763 c 0.828,-0.078 2.066,-0.004 2.777,-0.223 0.133,-0.039 0.031,-0.207 0.055,-0.34 0.215,-1.23 0.554,-2.394 0.847,-3.582 1.145,-4.625 1.832,-9.375 3.145,-13.961 1.426,-4.992 2.914,-10.617 1.184,-16.883 -0.168,-0.613 -0.395,-1.234 -0.684,-1.859 -1.961,-4.191 -6.996,-8.18 -11.402,-8.18 -0.536,0 -1.114,0.153 -1.368,0.504 1.86,1.192 3.02,2.414 3.852,4.192 0.996,2.129 0.98,4.125 0.852,5.961 0.351,-0.207 1.476,-0.723 1.949,-0.723 1.902,0 3.539,1.863 4.304,3.496 1.403,3.004 1.164,6.07 0.922,8.629 -0.125,1.277 -0.293,2.543 -0.531,3.769 l -0.355,1.778 -0.047,0.195 -0.043,0.192 c 0.211,0 0.019,-0.375 0.027,-0.567 0.133,-3.098 0.078,-7.418 -1.57,-10.941 -0.766,-1.641 -2.016,-3.328 -3.938,-3.328 -8.426,0 -4.187,24.129 -10.937,29.863 0.371,0.625 0.707,1.266 0.984,1.894 3.996,-4.871 4.207,-18.304 10.086,-18.304 1.426,0 2.902,1.351 3.508,2.648 2.613,5.59 -1.727,12.102 -3.617,15.77 z"
         style="fill:none;stroke:#000000;stroke-width:0.81279999;stroke-linecap:butt;stroke-linejoin:miter;stroke-miterlimit:3.86370993;stroke-dasharray:none;stroke-opacity:1"
         id="path272" />
      <path
         d="m 126.41776,335.59863 c 5.793,0 2.414,-14.621 0.355,-19.032 -1.765,-3.773 -5.738,-9.218 -10.445,-9.218 -5.648,0 -5.48,6.39 -3.23,11.199 1.214,2.601 3.086,5.523 5.664,7.668 -0.661,-2.238 1.57,-3.77 0.668,-5.699 -0.618,-1.321 -1.891,-2.758 -2.555,-4.176 -1.07,-2.293 -0.66,-6.36 1.93,-6.36 2.316,0 4.375,2.899 5.218,4.704 1.731,3.703 6.055,19.488 1.219,19.488 -5.566,0 -15.156,-13.699 -17.164,-17.996 -3.586,-7.672 -0.988,-17.117 7.18,-17.117 5.519,0 10.062,5.359 12.254,10.05 1.304,2.793 2.015,5.575 2.297,8.196 l 1.07,0.199 c 0.238,-7.219 7.797,-19.168 4.582,-26.055 -4.121,-8.808 -16.438,-8.73 -23.469,-11.859 -1.476,3.492 -3.48,6.738 -6.301,9.215 6.274,2.132 21.688,5.711 25.039,12.882 1.411,3.012 0.45,8.008 -1.175,9.7 -0.278,-1.063 -0.661,-2.149 -1.172,-3.239 -2.867,-6.14 -9.012,-10.898 -15.348,-10.898 -8.82,0 -12.559,6.398 -8.406,15.281 2.488,5.328 15.211,23.067 21.789,23.067"
         style="fill:#000000;fill-opacity:1;fill-rule:nonzero;stroke:none"
         id="path274" />
      <path
         d="m 126.41776,335.59863 c 5.793,0 2.414,-14.621 0.355,-19.032 -1.765,-3.773 -5.738,-9.218 -10.445,-9.218 -5.648,0 -5.48,6.39 -3.23,11.199 1.214,2.601 3.086,5.523 5.664,7.668 -0.661,-2.238 1.57,-3.77 0.668,-5.699 -0.618,-1.321 -1.891,-2.758 -2.555,-4.176 -1.07,-2.293 -0.66,-6.36 1.93,-6.36 2.316,0 4.375,2.899 5.218,4.704 1.731,3.703 6.055,19.488 1.219,19.488 -5.566,0 -15.156,-13.699 -17.164,-17.996 -3.586,-7.672 -0.988,-17.117 7.18,-17.117 5.519,0 10.062,5.359 12.254,10.05 1.304,2.793 2.015,5.575 2.297,8.196 l 1.07,0.199 c 0.238,-7.219 7.797,-19.168 4.582,-26.055 -4.121,-8.808 -16.438,-8.73 -23.469,-11.859 -1.476,3.492 -3.48,6.738 -6.301,9.215 6.274,2.132 21.688,5.711 25.039,12.882 1.411,3.012 0.45,8.008 -1.175,9.7 -0.278,-1.063 -0.661,-2.149 -1.172,-3.239 -2.867,-6.14 -9.012,-10.898 -15.348,-10.898 -8.82,0 -12.559,6.398 -8.406,15.281 2.488,5.328 15.211,23.067 21.789,23.067 z"
         style="fill:none;stroke:#000000;stroke-width:9.75339985;stroke-linecap:butt;stroke-linejoin:round;stroke-miterlimit:3.8636899;stroke-dasharray:none;stroke-opacity:1"
         id="path276" />
      <path
         d="m 141.48376,314.43463 c 0.352,-0.868 1.364,-5.793 2.133,-5.793 1.66,0 4.664,4.566 5.469,5.75 1.476,-0.977 0.656,-3.028 3.394,-3.028 1.243,0 1.864,2.696 3.157,2.742 0.043,-1.089 0.113,-2.078 -0.477,-3.335 -0.906,-1.942 -3.203,-4.575 -5.457,-4.575 -1.617,0 -3.867,1.969 -4.312,1.969 -0.481,0 -1.36,-0.23 -1.641,-0.828 -1.176,-2.516 1.965,-10.91 5.117,-10.91 1.684,0 3.692,1.246 5.453,2.015 -0.461,-3.023 -0.523,-5.574 0.082,-8.175 -1.605,-1.028 -3.484,-1.461 -4.992,-1.461 -7.742,0 -3.473,18.183 -10.609,22.058 l 2.683,3.571"
         style="fill:#000000;fill-opacity:1;fill-rule:nonzero;stroke:none"
         id="path278" />
      <path
         d="m 141.48376,314.43463 c 0.352,-0.868 1.364,-5.793 2.133,-5.793 1.66,0 4.664,4.566 5.469,5.75 1.476,-0.977 0.656,-3.028 3.394,-3.028 1.243,0 1.864,2.696 3.157,2.742 0.043,-1.089 0.113,-2.078 -0.477,-3.335 -0.906,-1.942 -3.203,-4.575 -5.457,-4.575 -1.617,0 -3.867,1.969 -4.312,1.969 -0.481,0 -1.36,-0.23 -1.641,-0.828 -1.176,-2.516 1.965,-10.91 5.117,-10.91 1.684,0 3.692,1.246 5.453,2.015 -0.461,-3.023 -0.523,-5.574 0.082,-8.175 -1.605,-1.028 -3.484,-1.461 -4.992,-1.461 -7.742,0 -3.473,18.183 -10.609,22.058 z"
         style="fill:none;stroke:#000000;stroke-width:9.75339985;stroke-linecap:butt;stroke-linejoin:round;stroke-miterlimit:3.8636899;stroke-dasharray:none;stroke-opacity:1"
         id="path280" />
      <path
         d="m 171.23776,315.89163 c 5.852,0 8.16,-10.629 5.535,-16.246 -2.035,-4.356 -5.644,-7.516 -10.273,-7.516 -8.168,0 -7.145,11.246 -3.957,18.066 0.879,1.879 3.883,5.973 6.23,5.973 0.864,0 1.578,-0.277 2.465,-0.277 z m -0.179,-0.993 c -0.922,0 -1.731,-0.461 -2.161,-1.375 -0.894,-1.918 3.578,-3.859 2.934,-5.23 -0.402,-0.863 -1.941,-1.672 -2.719,-1.672 -3.875,0 -3.844,5.094 -1.531,8.414 -1.438,-0.926 -2.379,-2.336 -2.992,-3.648 -2.27,-4.86 -0.469,-11.543 4.719,-11.543 2.863,0 6.164,2.597 7.445,5.343 1.578,3.372 -2.457,9.711 -5.695,9.711"
         style="fill:#000000;fill-opacity:1;fill-rule:evenodd;stroke:none"
         id="path282" />
      <path
         d="m 171.23776,315.89163 c 5.852,0 8.16,-10.629 5.535,-16.246 -2.035,-4.356 -5.644,-7.516 -10.273,-7.516 -8.168,0 -7.145,11.246 -3.957,18.066 0.879,1.879 3.883,5.973 6.23,5.973 0.864,0 1.578,-0.277 2.465,-0.277 z"
         style="fill:none;stroke:#000000;stroke-width:9.75339985;stroke-linecap:butt;stroke-linejoin:round;stroke-miterlimit:3.8636899;stroke-dasharray:none;stroke-opacity:1"
         id="path284" />
      <path
         d="m 171.05876,314.89863 c -0.922,0 -1.731,-0.461 -2.161,-1.375 -0.894,-1.918 3.578,-3.859 2.934,-5.23 -0.402,-0.863 -1.941,-1.672 -2.719,-1.672 -3.875,0 -3.844,5.094 -1.531,8.414 -1.438,-0.926 -2.379,-2.336 -2.992,-3.648 -2.27,-4.86 -0.469,-11.543 4.719,-11.543 2.863,0 6.164,2.597 7.445,5.343 1.578,3.372 -2.457,9.711 -5.695,9.711 z"
         style="fill:none;stroke:#000000;stroke-width:9.75339985;stroke-linecap:butt;stroke-linejoin:round;stroke-miterlimit:3.8636899;stroke-dasharray:none;stroke-opacity:1"
         id="path286" />
      <path
         d="m 197.83176,298.39163 c -1.531,-3.27 -4.379,-5.067 -7.59,-5.067 -10.18,0 -12.199,9.375 -7.785,18.817 1.039,2.226 2.75,4.695 5.359,4.695 8.18,0 13.879,-10.176 10.016,-18.445 z m -8.125,17.257 c -0.75,0 -1.41,-0.273 -1.77,-1.043 -0.793,-1.695 3.516,-3.207 3.524,-4.957 -0.449,-0.539 -1.711,-1.14 -2.262,-1.14 -3.101,0 -5.441,4.246 -2.793,7.406 -1.074,-0.691 -1.715,-1.723 -2.168,-2.695 -2.687,-5.746 1.145,-11.555 6.723,-11.555 2.32,0 5.312,1.305 6.519,3.887 1.707,3.652 -4.371,10.097 -7.773,10.097"
         style="fill:#000000;fill-opacity:1;fill-rule:evenodd;stroke:none"
         id="path288" />
      <path
         d="m 197.83176,298.39163 c -1.531,-3.27 -4.379,-5.067 -7.59,-5.067 -10.18,0 -12.199,9.375 -7.785,18.817 1.039,2.226 2.75,4.695 5.359,4.695 8.18,0 13.879,-10.176 10.016,-18.445 z"
         style="fill:none;stroke:#000000;stroke-width:9.75339985;stroke-linecap:butt;stroke-linejoin:round;stroke-miterlimit:3.8636899;stroke-dasharray:none;stroke-opacity:1"
         id="path290" />
      <path
         d="m 189.70676,315.64863 c -0.75,0 -1.41,-0.273 -1.77,-1.043 -0.793,-1.695 3.516,-3.207 3.524,-4.957 -0.449,-0.539 -1.711,-1.14 -2.262,-1.14 -3.101,0 -5.441,4.246 -2.793,7.406 -1.074,-0.691 -1.715,-1.723 -2.168,-2.695 -2.687,-5.746 1.145,-11.555 6.723,-11.555 2.32,0 5.312,1.305 6.519,3.887 1.707,3.652 -4.371,10.097 -7.773,10.097 z"
         style="fill:none;stroke:#000000;stroke-width:9.75339985;stroke-linecap:butt;stroke-linejoin:round;stroke-miterlimit:3.8636899;stroke-dasharray:none;stroke-opacity:1"
         id="path292" />
      <path
         d="m 208.35876,315.70763 c 8.774,0 13.231,-16.262 9.313,-24.648 -0.75,-1.602 -2.149,-3.207 -3.988,-3.207 -10.028,0 -7.465,20.125 -13.11,25.839 0.516,0.555 1.012,1.133 1.461,1.719 3.816,-4.519 1.922,-16.414 10.063,-16.414 1.878,0 3.296,1.66 4.054,3.277 2.02,4.329 -1.722,11.84 -5.816,11.84 -0.043,0 -0.629,-0.023 -0.617,-0.261 0.152,-2.762 2.3,-1.043 0.136,-5.743 -2.214,0.446 -4.558,4.036 -3.347,6.625 0.355,0.758 1.246,0.973 1.851,0.973"
         style="fill:#000000;fill-opacity:1;fill-rule:nonzero;stroke:none"
         id="path294" />
      <path
         d="m 208.35876,315.70763 c 8.774,0 13.231,-16.262 9.313,-24.648 -0.75,-1.602 -2.149,-3.207 -3.988,-3.207 -10.028,0 -7.465,20.125 -13.11,25.839 0.516,0.555 1.012,1.133 1.461,1.719 3.816,-4.519 1.922,-16.414 10.063,-16.414 1.878,0 3.296,1.66 4.054,3.277 2.02,4.329 -1.722,11.84 -5.816,11.84 -0.043,0 -0.629,-0.023 -0.617,-0.261 0.152,-2.762 2.3,-1.043 0.136,-5.743 -2.214,0.446 -4.558,4.036 -3.347,6.625 0.355,0.758 1.246,0.973 1.851,0.973 z"
         style="fill:none;stroke:#000000;stroke-width:9.75339985;stroke-linecap:butt;stroke-linejoin:round;stroke-miterlimit:3.8636899;stroke-dasharray:none;stroke-opacity:1"
         id="path296" />
      <path
         d="m 230.17576,315.88763 c 0.828,-0.078 2.066,-0.004 2.777,-0.223 0.133,-0.039 0.031,-0.207 0.055,-0.34 0.215,-1.23 0.554,-2.394 0.847,-3.582 1.145,-4.625 1.832,-9.375 3.145,-13.961 1.426,-4.992 2.914,-10.617 1.184,-16.883 -0.168,-0.613 -0.395,-1.234 -0.684,-1.859 -1.961,-4.191 -6.996,-8.18 -11.402,-8.18 -0.536,0 -1.114,0.153 -1.368,0.504 1.86,1.192 3.02,2.414 3.852,4.192 0.996,2.129 0.98,4.125 0.852,5.961 0.351,-0.207 1.476,-0.723 1.949,-0.723 1.902,0 3.539,1.863 4.304,3.496 1.403,3.004 1.164,6.07 0.922,8.629 -0.125,1.277 -0.293,2.543 -0.531,3.769 l -0.355,1.778 -0.047,0.195 -0.043,0.192 c 0.211,0 0.019,-0.375 0.027,-0.567 0.133,-3.098 0.078,-7.418 -1.57,-10.941 -0.766,-1.641 -2.016,-3.328 -3.938,-3.328 -8.426,0 -4.187,24.129 -10.937,29.863 0.371,0.625 0.707,1.266 0.984,1.894 3.996,-4.871 4.207,-18.304 10.086,-18.304 1.426,0 2.902,1.351 3.508,2.648 2.613,5.59 -1.727,12.102 -3.617,15.77"
         style="fill:#000000;fill-opacity:1;fill-rule:evenodd;stroke:none"
         id="path298" />
      <path
         d="m 230.17576,315.88763 c 0.828,-0.078 2.066,-0.004 2.777,-0.223 0.133,-0.039 0.031,-0.207 0.055,-0.34 0.215,-1.23 0.554,-2.394 0.847,-3.582 1.145,-4.625 1.832,-9.375 3.145,-13.961 1.426,-4.992 2.914,-10.617 1.184,-16.883 -0.168,-0.613 -0.395,-1.234 -0.684,-1.859 -1.961,-4.191 -6.996,-8.18 -11.402,-8.18 -0.536,0 -1.114,0.153 -1.368,0.504 1.86,1.192 3.02,2.414 3.852,4.192 0.996,2.129 0.98,4.125 0.852,5.961 0.351,-0.207 1.476,-0.723 1.949,-0.723 1.902,0 3.539,1.863 4.304,3.496 1.403,3.004 1.164,6.07 0.922,8.629 -0.125,1.277 -0.293,2.543 -0.531,3.769 l -0.355,1.778 -0.047,0.195 -0.043,0.192 c 0.211,0 0.019,-0.375 0.027,-0.567 0.133,-3.098 0.078,-7.418 -1.57,-10.941 -0.766,-1.641 -2.016,-3.328 -3.938,-3.328 -8.426,0 -4.187,24.129 -10.937,29.863 0.371,0.625 0.707,1.266 0.984,1.894 3.996,-4.871 4.207,-18.304 10.086,-18.304 1.426,0 2.902,1.351 3.508,2.648 2.613,5.59 -1.727,12.102 -3.617,15.77 z"
         style="fill:none;stroke:#000000;stroke-width:9.75339985;stroke-linecap:butt;stroke-linejoin:round;stroke-miterlimit:3.8636899;stroke-dasharray:none;stroke-opacity:1"
         id="path300" />
      <path
         d="m 126.41776,335.59863 c 5.793,0 2.414,-14.621 0.355,-19.032 -1.765,-3.773 -5.738,-9.218 -10.445,-9.218 -5.648,0 -5.48,6.39 -3.23,11.199 1.214,2.601 3.086,5.523 5.664,7.668 -0.661,-2.238 1.57,-3.77 0.668,-5.699 -0.618,-1.321 -1.891,-2.758 -2.555,-4.176 -1.07,-2.293 -0.66,-6.36 1.93,-6.36 2.316,0 4.375,2.899 5.218,4.704 1.731,3.703 6.055,19.488 1.219,19.488 -5.566,0 -15.156,-13.699 -17.164,-17.996 -3.586,-7.672 -0.988,-17.117 7.18,-17.117 5.519,0 10.062,5.359 12.254,10.05 1.304,2.793 2.015,5.575 2.297,8.196 l 1.07,0.199 c 0.238,-7.219 7.797,-19.168 4.582,-26.055 -4.121,-8.808 -16.438,-8.73 -23.469,-11.859 -1.476,3.492 -3.48,6.738 -6.301,9.215 6.274,2.132 21.688,5.711 25.039,12.882 1.411,3.012 0.45,8.008 -1.175,9.7 -0.278,-1.063 -0.661,-2.149 -1.172,-3.239 -2.867,-6.14 -9.012,-10.898 -15.348,-10.898 -8.82,0 -12.559,6.398 -8.406,15.281 2.488,5.328 15.211,23.067 21.789,23.067"
         style="fill:#ffffff;fill-opacity:1;fill-rule:nonzero;stroke:none"
         id="path302" />
      <path
         d="m 141.48376,314.43463 c 0.352,-0.868 1.364,-5.793 2.133,-5.793 1.66,0 4.664,4.566 5.469,5.75 1.476,-0.977 0.656,-3.028 3.394,-3.028 1.243,0 1.864,2.696 3.157,2.742 0.043,-1.089 0.113,-2.078 -0.477,-3.335 -0.906,-1.942 -3.203,-4.575 -5.457,-4.575 -1.617,0 -3.867,1.969 -4.312,1.969 -0.481,0 -1.36,-0.23 -1.641,-0.828 -1.176,-2.516 1.965,-10.91 5.117,-10.91 1.684,0 3.692,1.246 5.453,2.015 -0.461,-3.023 -0.523,-5.574 0.082,-8.175 -1.605,-1.028 -3.484,-1.461 -4.992,-1.461 -7.742,0 -3.473,18.183 -10.609,22.058 l 2.683,3.571"
         style="fill:#ffffff;fill-opacity:1;fill-rule:nonzero;stroke:none"
         id="path304" />
      <path
         d="m 171.23776,315.89163 c 5.852,0 8.16,-10.629 5.535,-16.246 -2.035,-4.356 -5.644,-7.516 -10.273,-7.516 -8.168,0 -7.145,11.246 -3.957,18.066 0.879,1.879 3.883,5.973 6.23,5.973 0.864,0 1.578,-0.277 2.465,-0.277 z m -0.179,-0.993 c -0.922,0 -1.731,-0.461 -2.161,-1.375 -0.894,-1.918 3.578,-3.859 2.934,-5.23 -0.402,-0.863 -1.941,-1.672 -2.719,-1.672 -3.875,0 -3.844,5.094 -1.531,8.414 -1.438,-0.926 -2.379,-2.336 -2.992,-3.648 -2.27,-4.86 -0.469,-11.543 4.719,-11.543 2.863,0 6.164,2.597 7.445,5.343 1.578,3.372 -2.457,9.711 -5.695,9.711"
         style="fill:#ffffff;fill-opacity:1;fill-rule:evenodd;stroke:none"
         id="path306" />
      <path
         d="m 197.83176,298.39163 c -1.531,-3.27 -4.379,-5.067 -7.59,-5.067 -10.18,0 -12.199,9.375 -7.785,18.817 1.039,2.226 2.75,4.695 5.359,4.695 8.18,0 13.879,-10.176 10.016,-18.445 z m -8.125,17.257 c -0.75,0 -1.41,-0.273 -1.77,-1.043 -0.793,-1.695 3.516,-3.207 3.524,-4.957 -0.449,-0.539 -1.711,-1.14 -2.262,-1.14 -3.101,0 -5.441,4.246 -2.793,7.406 -1.074,-0.691 -1.715,-1.723 -2.168,-2.695 -2.687,-5.746 1.145,-11.555 6.723,-11.555 2.32,0 5.312,1.305 6.519,3.887 1.707,3.652 -4.371,10.097 -7.773,10.097"
         style="fill:#ffffff;fill-opacity:1;fill-rule:evenodd;stroke:none"
         id="path308" />
      <path
         d="m 208.35876,315.70763 c 8.774,0 13.231,-16.262 9.313,-24.648 -0.75,-1.602 -2.149,-3.207 -3.988,-3.207 -10.028,0 -7.465,20.125 -13.11,25.839 0.516,0.555 1.012,1.133 1.461,1.719 3.816,-4.519 1.922,-16.414 10.063,-16.414 1.878,0 3.296,1.66 4.054,3.277 2.02,4.329 -1.722,11.84 -5.816,11.84 -0.043,0 -0.629,-0.023 -0.617,-0.261 0.152,-2.762 2.3,-1.043 0.136,-5.743 -2.214,0.446 -4.558,4.036 -3.347,6.625 0.355,0.758 1.246,0.973 1.851,0.973"
         style="fill:#ffffff;fill-opacity:1;fill-rule:nonzero;stroke:none"
         id="path310" />
      <path
         d="m 230.17576,315.88763 c 0.828,-0.078 2.066,-0.004 2.777,-0.223 0.133,-0.039 0.031,-0.207 0.055,-0.34 0.215,-1.23 0.554,-2.394 0.847,-3.582 1.145,-4.625 1.832,-9.375 3.145,-13.961 1.426,-4.992 2.914,-10.617 1.184,-16.883 -0.168,-0.613 -0.395,-1.234 -0.684,-1.859 -6.57,-12.742 -20.629,-9.309 -25.035,-9.309 -0.535,0 -1.114,0.153 -1.367,0.504 1.859,1.196 3.023,2.418 3.851,4.196 0.996,2.129 0.981,4.125 0.852,5.961 0.351,-0.207 1.48,-0.723 1.949,-0.723 1.906,0 12.523,-5.512 17.937,4.621 1.403,3.004 1.164,6.07 0.922,8.629 -0.125,1.277 -0.293,2.543 -0.531,3.769 l -0.355,1.778 -0.047,0.195 -0.043,0.192 c 0.211,0 0.019,-0.375 0.027,-0.567 0.133,-3.098 0.078,-7.418 -1.57,-10.941 -0.766,-1.641 -2.016,-3.328 -3.938,-3.328 -8.426,0 -4.187,24.129 -10.937,29.863 0.371,0.625 0.707,1.266 0.984,1.894 3.996,-4.871 4.207,-18.304 10.086,-18.304 1.426,0 2.902,1.351 3.508,2.648 2.613,5.59 -1.727,12.102 -3.617,15.77"
         style="fill:#ffffff;fill-opacity:1;fill-rule:evenodd;stroke:none"
         id="path312" />
    </g>
  </g>
</svg>
